<svg xmlns="http://www.w3.org/2000/svg" viewBox="0 0 832.68 220" fill="#fff"><path d="M821.47 218.56a11.64 11.64 0 0 1-4.4-.83 11 11 0 0 1-6.81-10.28 11.06 11.06 0 0 1 .86-4.37 10.76 10.76 0 0 1 6-5.85 11.94 11.94 0 0 1 8.8 0 10.73 10.73 0 0 1 3.56 2.33 10.87 10.87 0 0 1 2.39 3.52 11.56 11.56 0 0 1 0 8.75 11.29 11.29 0 0 1-2.39 3.54 10.8 10.8 0 0 1-3.56 2.36 11.64 11.64 0 0 1-4.45.83zm0-2.11a8.76 8.76 0 0 0 6.32-2.61 9.18 9.18 0 0 0 1.89-2.87 9 9 0 0 0 .69-3.52 8.84 8.84 0 0 0-.69-3.49 9.21 9.21 0 0 0-1.89-2.85 9 9 0 0 0-9.81-1.92 8.65 8.65 0 0 0-2.83 1.92 9.21 9.21 0 0 0-1.89 2.85 8.84 8.84 0 0 0-.69 3.49 9 9 0 0 0 .69 3.52 9.18 9.18 0 0 0 1.89 2.87 8.65 8.65 0 0 0 2.83 1.92 8.8 8.8 0 0 0 3.49.69zm-3.89-3.2v-11.8h3.89a5.34 5.34 0 0 1 3.42 1 3.33 3.33 0 0 1 1.25 2.73 3.72 3.72 0 0 1-.54 2 3.58 3.58 0 0 1-1.53 1.37l2.71 4.72h-2.56l-2.16-4.08h-.79-.61c-.25 0-.5 0-.76-.08v4.18zm2.32-9.83v3.69a9.69 9.69 0 0 0 1.37.1 3 3 0 0 0 1.87-.52 1.7 1.7 0 0 0 .64-1.4 1.62 1.62 0 0 0-.66-1.35 2.85 2.85 0 0 0-1.8-.52zM38.32 95a42.63 42.63 0 0 1-16.45-3 31.7 31.7 0 0 1-12.24-8.79 32.17 32.17 0 0 1-6.76-13.45l23.46-4.34a13.43 13.43 0 0 0 4.6 6.7 12.17 12.17 0 0 0 7.77 2.61 12.06 12.06 0 0 0 7.27-2 6.32 6.32 0 0 0 2.81-5.36 6.47 6.47 0 0 0-1.34-4.2A10 10 0 0 0 43 60.32a53.19 53.19 0 0 0-8.29-2.17l-2.68-.51a38.92 38.92 0 0 1-14.41-5.42 28.08 28.08 0 0 1-9.24-9.5A24.69 24.69 0 0 1 5.17 30.1a26.83 26.83 0 0 1 2.55-11.74 27.86 27.86 0 0 1 7.2-9.31 34.82 34.82 0 0 1 10.9-6.18A39.91 39.91 0 0 1 39.34.64a38 38 0 0 1 15.37 3 29.71 29.71 0 0 1 17.53 21.48l-22.95 4.47a12.4 12.4 0 0 0-3.76-6.25 9.74 9.74 0 0 0-6.7-2.43A9.84 9.84 0 0 0 32.39 23a6.31 6.31 0 0 0-2.48 5.1 6 6 0 0 0 1.27 3.9 9.46 9.46 0 0 0 4.14 2.67 45.1 45.1 0 0 0 7.85 2l2.55.51q13.39 2.69 20.66 10a24.29 24.29 0 0 1 7.27 17.85A27.94 27.94 0 0 1 71 77a28.3 28.3 0 0 1-7.33 9.57 34.33 34.33 0 0 1-11.22 6.24A43.34 43.34 0 0 1 38.32 95zM86 93.09V2.55h32.27q11.85 0 20.21 3.76a28.5 28.5 0 0 1 12.81 10.84q4.47 7.08 4.47 17a31 31 0 0 1-2.62 12.94 28.67 28.67 0 0 1-7.46 10 34.41 34.41 0 0 1-11.6 6.51 46.19 46.19 0 0 1-14.92 2.29 55.89 55.89 0 0 1-8.93-.76v27.96zm24.23-70.26v22.06a50.2 50.2 0 0 0 8.16.76q6 0 9.31-3c2.21-2 3.32-4.78 3.32-8.36s-1.11-6.48-3.32-8.48-5.4-3-9.56-3zm101.96 72.81a53.06 53.06 0 0 1-15.81-2.29 46.63 46.63 0 0 1-13.45-6.63 47.55 47.55 0 0 1-10.46-10.2 44.7 44.7 0 0 1-6.76-13.14A49.78 49.78 0 0 1 163.35 48a48.65 48.65 0 0 1 2.42-15.43 46.72 46.72 0 0 1 6.83-13.2 47.37 47.37 0 0 1 10.45-10.32 48.1 48.1 0 0 1 13.52-6.69A52.5 52.5 0 0 1 212.45 0a53.06 53.06 0 0 1 15.81 2.3 46.81 46.81 0 0 1 13.46 6.63 47.72 47.72 0 0 1 10.45 10.2 44.53 44.53 0 0 1 6.76 13.13 49.83 49.83 0 0 1 2.36 15.43 48.66 48.66 0 0 1-2.42 15.44 46.68 46.68 0 0 1-17.28 23.46 48.12 48.12 0 0 1-13.52 6.7 52.45 52.45 0 0 1-15.88 2.35zm.13-23.46a22.24 22.24 0 0 0 9.06-1.79 21 21 0 0 0 7.14-5.1 23.52 23.52 0 0 0 4.72-7.71 27.61 27.61 0 0 0 1.65-9.76 27.55 27.55 0 0 0-1.65-9.75 23.46 23.46 0 0 0-4.72-7.72 21.17 21.17 0 0 0-7.14-5.1 23.92 23.92 0 0 0-18.11 0 21.17 21.17 0 0 0-7.14 5.1 23.29 23.29 0 0 0-4.72 7.72 27.33 27.33 0 0 0-1.66 9.75 27.38 27.38 0 0 0 1.66 9.76 23.35 23.35 0 0 0 4.72 7.71 21 21 0 0 0 7.14 5.1 22.19 22.19 0 0 0 9.05 1.79zm60.45 20.91V2.55h32.52q11.73 0 20.27 3.64a28.94 28.94 0 0 1 13.08 10.32 28 28 0 0 1 4.52 16 26.72 26.72 0 0 1-1.78 9.63 31.78 31.78 0 0 1-5 8.61 29.62 29.62 0 0 1-7.52 6.63l19.77 35.7h-26.76l-14-28.94q-1.79.12-3.57.12a46.42 46.42 0 0 1-7.27-.63v29.46zM297 22.83v20.66a35.4 35.4 0 0 0 4.4.7l4.78.19q5.61 0 8.93-2.93a10.35 10.35 0 0 0 3.31-8.17 9.25 9.25 0 0 0-3.5-7.71q-3.51-2.75-9.76-2.74zm77.41 70.26V25h-23.85V2.55h73.2V25h-23.85v68.09zM0 217.45l35.58-90.54h27.16l35.71 90.54H71.8l-5.61-15.81H31.24l-5.48 15.81zm38.26-35.84h20.91L48.72 151.9zm69.12 35.84v-90.54h39.15a54.6 54.6 0 0 1 19.38 3.31 45.91 45.91 0 0 1 15.24 9.31 41.5 41.5 0 0 1 9.95 14.22 48.8 48.8 0 0 1-.07 36.47A42.75 42.75 0 0 1 181 204.7a45.32 45.32 0 0 1-15.37 9.43 54.89 54.89 0 0 1-19.45 3.32zm25.5-22.45h12a26.13 26.13 0 0 0 12.5-2.8 19.49 19.49 0 0 0 8-7.91 27.52 27.52 0 0 0 0-24.23 19.47 19.47 0 0 0-8-7.9 26.13 26.13 0 0 0-12.5-2.81h-12zm94.9 22.45l-34.05-90.54h28.06l20.53 63.5 20.4-63.5h26.91l-33.92 90.54zm69.84 0v-90.54h60.32v20.91h-36.09V161h31.63v20.78h-31.63v14.92h37.5v20.79zm73.59 0v-90.54h21.68l36 52.92v-52.92h24.22v90.54h-21.7l-36-52.92v52.92zm117.2 0v-68.1h-23.85v-22.44h73.2v22.44h-23.84v68.1zM590.69 220a49.33 49.33 0 0 1-17.09-2.81 35.74 35.74 0 0 1-13.07-8.19 36.59 36.59 0 0 1-8.36-12.81 45.29 45.29 0 0 1-2.93-16.65v-52.63h25.51v51.52a21.53 21.53 0 0 0 2 9.62 14.81 14.81 0 0 0 5.61 6.25 17.24 17.24 0 0 0 17 0 14.77 14.77 0 0 0 5.62-6.25 21.66 21.66 0 0 0 2-9.62v-51.52h25.51v52.66a45.08 45.08 0 0 1-2.94 16.65 35.74 35.74 0 0 1-21.55 21 49.74 49.74 0 0 1-17.31 2.78zm54.45-2.55v-90.54h32.52q11.73 0 20.27 3.63A29 29 0 0 1 711 140.87a27.94 27.94 0 0 1 4.52 16 26.64 26.64 0 0 1-1.78 9.63 31.48 31.48 0 0 1-5 8.61 29.24 29.24 0 0 1-7.52 6.63L721 217.45h-26.76l-14-28.95-3.57.13a45.32 45.32 0 0 1-7.27-.64v29.46zm24.23-70.27v20.66a33.63 33.63 0 0 0 4.4.7c1.4.13 3 .19 4.78.19 3.74 0 6.72-1 8.93-2.93a10.31 10.31 0 0 0 3.31-8.16 9.25 9.25 0 0 0-3.5-7.72q-3.51-2.73-9.76-2.74zm59.3 70.27v-90.54H789v20.91h-36.1V161h31.63v20.78H752.9v14.92h37.49v20.79z"/></svg>