<svg xmlns="http://www.w3.org/2000/svg" viewBox="0 0 300 300"><path d="M176.46 186.5v1.97h-14.13v-17.84h13.52v1.91h-10.17v5.62h9.64v1.94h-9.67v6.4h10.81zm-69.2 30.66a4.27 4.27 0 0 1-2.08 3.86 12 12 0 0 1-6.63 2.12H66.16v-4.89h32.05c1.4 0 2.11-.55 2.21-1.86s0-2.46 0-3.79H66.14v-.83-6.21A6.05 6.05 0 0 1 71.3 199a15.2 15.2 0 0 1 3.68-.45h32.27v4.87H75a4.31 4.31 0 0 0-1.29.16A1.39 1.39 0 0 0 72.6 205v3.3h34.72v.83l-.06 8.03zm43.56-7.34a12.31 12.31 0 0 0-12.34-11.2H126a12.28 12.28 0 0 0-1.18 24.52c2.45.14 4.92 0 7.36 0h1a63 63 0 0 0 7-.14 12.23 12.23 0 0 0 10.64-13.18zm-12.2 8.43h-12.83a7.39 7.39 0 1 1-.13-14.78h13.05a7.39 7.39 0 1 1-.09 14.78zm55.02 0v4.9h-25a12.29 12.29 0 0 1 .08-24.5h24.88v4.88h-24.84a7.36 7.36 0 1 0 0 14.72h24.93zm40.18-8.67a12.38 12.38 0 0 0-11.86-11h-13.44a10.6 10.6 0 0 0-2 .23 12.28 12.28 0 0 0 1.32 24.29c2.45.13 4.9 0 7.36 0h4.09a32.53 32.53 0 0 0 4.19-.12 12.34 12.34 0 0 0 10.34-13.4zm-12.17 8.67h-12.87a7.39 7.39 0 0 1 0-14.78h13a7.39 7.39 0 0 1 0 14.78zm-25.83-34.96a5 5 0 0 0-1.9-2.58 13.26 13.26 0 0 0-1.33-.74 23.54 23.54 0 0 0 3-1.76 3.75 3.75 0 0 0 .53-5.27 3.87 3.87 0 0 0-.53-.54 7.47 7.47 0 0 0-4.1-1.71 39.29 39.29 0 0 0-9.57 0c-.48 0-.59.27-.58.74v17h3.25v-7.63h3.52a4.35 4.35 0 0 1 4.62 3.54l1.3 3.56c.09.23.34.57.54.58h3l-1.75-5.19zm-6.06-4.48c-1.64.1-3.29 0-5 0v-6.35a14.2 14.2 0 0 1 7.14.58 2.67 2.67 0 0 1 1.76 2.51 2.73 2.73 0 0 1-1.66 2.55 6.42 6.42 0 0 1-2.24.71zm-73 8.19a9.32 9.32 0 0 1-4.69 1.63 19.25 19.25 0 0 1-7.84-.67l-.56-.18-.34-.22.83-1.91a13.84 13.84 0 0 0 6.16 1.1 13 13 0 0 0 3.26-.73 2.41 2.41 0 0 0 .21-4.48c-1.12-.54-2.29-.9-3.44-1.41a26.39 26.39 0 0 1-4.42-1.79c-2.81-1.7-2.81-4.91 0-6.67a11.74 11.74 0 0 1 6.82-1.4 13.1 13.1 0 0 1 4.8.85l-.78 1.67-5.21-.56a7.65 7.65 0 0 0-2.8.53 2.23 2.23 0 0 0-.15 4.2c1.12.49 2.33.84 3.47 1.3a28.27 28.27 0 0 1 4.54 1.9 3.93 3.93 0 0 1 .14 6.83zm21.67-5.3a6.78 6.78 0 0 1-6.33 7 11 11 0 0 1-6.07-.64 6 6 0 0 1-3.68-5.16c-.18-1.85-.14-3.72-.15-5.6v-6.63h2.94v10.58a7.81 7.81 0 0 0 .19 1.87 4.71 4.71 0 0 0 5.54 3.68h0c3.1-.29 4.66-2.14 4.68-5.6v-10.58h2.8v.45a179.48 179.48 0 0 1 .08 10.63zm17.77-9.79a9 9 0 0 0-4.57-1.29l-7.92.1c-.68 0-.82.28-.82.91v16.84h3.31v-7h4.73a10.15 10.15 0 0 0 5.7-1.94 4.49 4.49 0 0 0 1.11-6.25h0a4.42 4.42 0 0 0-1.54-1.37zm-2.8 6.75a6.4 6.4 0 0 1-2.25.73c-1.41.13-3 0-4.42 0-.15 0-.45-.26-.45-.38v-6.56a14.86 14.86 0 0 1 6.82.46 3 3 0 0 1 2.11 2.69 3 3 0 0 1-1.83 3.06zM203.76 76.8v15.53h-80.13a11.35 11.35 0 0 0-4.42.8 7.61 7.61 0 0 0-4.55 7.9v23.16H96.43v-20.64l-.19-5.21A23.53 23.53 0 0 1 98.79 86c2.94-5.29 7.66-8 13.48-8.9a18.15 18.15 0 0 1 3.13-.19h88.3zm.05 56.7a22.62 22.62 0 0 1-2.07 9.95 17.18 17.18 0 0 1-12.28 9.55 22.67 22.67 0 0 1-5.06.55H96.24V138h79.9a10.83 10.83 0 0 0 5.22-1 7.41 7.41 0 0 0 4-7.2V106h18.25v19.65l.2 7.85z"/></svg>