<svg xmlns="http://www.w3.org/2000/svg" viewBox="0 0 300 300"><path d="M127.11 138.18l-22.36 44.52h14.49l-18.32 35.57h17.82l1.27-1.01 11.21-20.54 1.06.71 13.63 16.79 14.86-17.75 12.1 21.8h18.47l-18.52-35.84 14.4-.04-23.46-44.21-17.85 23.54-18.8-23.54z" fill="#fff"/><path d="M134.86 105.8l1.48-.07h7.34c1.2 0 1.63.26 1.61 1.55v16.7 34.63a11.74 11.74 0 0 0 .34 2l.52.07a9.19 9.19 0 0 0 .7-1.49 4.94 4.94 0 0 0 0-1.33v-48.81a27 27 0 0 1 2.48 1.48c2.19 1.66 4.21 1.46 6-.62a1.74 1.74 0 0 1 1.15-.46h11.36a2.75 2.75 0 0 1 2.75 1.84l1.83 4.06c-.59 0-1 .1-1.44.1h-14.4c-.32 0-.71-.11-.91 0a4.69 4.69 0 0 0-.87.91c.31.24.61.67.92.68h10.76a4.23 4.23 0 0 1-4 3.24h-5.74c-.92 0-1.2.3-.92 1.25l3 11.93a7 7 0 0 0 .47 1.25c.79 1.67 2.22 2.14 3.67 1a21.53 21.53 0 0 0 3.4-3.48c4.28-5.34 7.59-11.33 11.09-17.19q1.35-2.31 2.93-4.48a5.15 5.15 0 0 1 4.93-2.32q1.51.07 3 0c-.25.48-.41.83-.6 1.15L174.1 132.5c-.32.54-1.08 1.28-.28 1.83s1.21-.53 1.54-1.09q7.1-12 14.14-24.08a2.14 2.14 0 0 1 2.13-1.23c3.13.06 6.27 0 9.4 0 .39 0 .78.06 1.33.1-.26.52-.41.92-.6 1.22q-13.29 23.3-26.68 46.56a2.3 2.3 0 0 0 0 2.56q6.09 11.27 12.1 22.56l1.2 2.28h-15l18.94 35.49c-.51 0-.85.11-1.18.11h-17.62a1.82 1.82 0 0 1-1.84-1.11q-5.09-9.52-10.23-19c-.23-.43-.49-.82-.78-1.32a5.42 5.42 0 0 0-.72.63l-7.86 9.63a1.11 1.11 0 0 0 .06 1.75l7.46 7.9 1.31 1.4h-28.57l1.7-1.92q3.07-3.28 6.2-6.56c.47-.5.84-.91.23-1.65l-8.8-10.76a2.26 2.26 0 0 0-.52-.35c-.26.44-.53.82-.75 1.24l-10.09 18.78a2.21 2.21 0 0 1-2.28 1.35c-5.7-.05-11.4 0-17.1 0H99.4l19-35.48h-14.89l.84-1.7 12.3-22.95a2.74 2.74 0 0 0 0-3.1q-13.32-23.15-26.53-46.28l-.64-1.22c.48 0 .82-.11 1.16-.11h9.77a1.86 1.86 0 0 1 1.84 1.06q6.82 11.68 13.71 23.34a9.67 9.67 0 0 0 .91 1.55c.24.26.72.31 1.1.45a4 4 0 0 0 0-1.19 7.2 7.2 0 0 0-.76-1.39l-13-22.29c-.18-.31-.33-.64-.64-1.23 2.58.15 5.16-.84 7.08 1.4a42.94 42.94 0 0 1 3.59 4.89l10.78 16.83a20.65 20.65 0 0 0 3.67 4c1.79 1.54 3.46 1 4.21-1.27l6.43-19.43a3.7 3.7 0 0 0-.61-3.67c-1.27-1.61-2.48-3.3-3.86-5.23zm-14.17 76.09l-19 35.62c.65.08 1 .16 1.27.16l14.53.07a2.14 2.14 0 0 0 2.09-1.35q5.34-9.72 10.73-19.41c.27-.48.57-.92.92-1.45.32.36.52.57.7.79l13 15.84c1 1.26 1.05 1.27 2 .05l12.69-15.47c.32-.38.66-.75 1.09-1.24.32.57.55.92.76 1.33l10.87 19.62a2.08 2.08 0 0 0 2.12 1.24h14.16c.43 0 .85-.09 1.57-.16l-19-35.62H186l-21.85-41-18.24 21.88-18.25-21.89-21.82 41zM97 125.38H41.46a10.38 10.38 0 0 1-8.34-3.5c-3.94-4.45-8.1-8.69-12.17-13-.21-.22-.39-.47-.74-.92h65.52a2.28 2.28 0 0 1 2.27 1.33l8.6 15.17c.18.24.18.54.4.92zm97.79-.08l2.33-4 6.91-12.2a1.85 1.85 0 0 1 1.84-1.1h64.61a7.13 7.13 0 0 1 1 .06 8 8 0 0 1-.59.84l-12.94 13.76a9.41 9.41 0 0 1-7.08 2.76q-27.68.06-55.34 0a5.25 5.25 0 0 1-.74-.12zm-7.27 12.7c1.83-3.15 3.59-6.09 5.19-9.17a3.08 3.08 0 0 1 3.21-1.84h49.32 1.56c-.37.4-.58.67-.83.92l-9.9 8.88a5.18 5.18 0 0 1-3 1.29h-44.81a5.4 5.4 0 0 1-.74-.08zm-83.1.15H60.21a7.2 7.2 0 0 1-5.38-2.07c-2.75-2.66-5.64-5.16-8.47-7.74a2.89 2.89 0 0 1-.86-1.18h51.72a1.53 1.53 0 0 1 1.2.53c2.03 3.39 3.86 6.78 6 10.46zm76.63 11.28l.69-1.31 3.67-6.43a2.76 2.76 0 0 1 2.91-1.74h36.39 1.55a8.13 8.13 0 0 1-.63.82l-7.14 7.18a5.65 5.65 0 0 1-4.24 1.56h-32.48a5.87 5.87 0 0 1-.72-.08zm-70.13.11H78.27a7.21 7.21 0 0 1-5.63-2.28c-2.25-2.4-4.64-4.66-7.16-7.17.61-.05.92-.09 1.29-.09h37.49a1.77 1.77 0 0 1 1.83 1.05l4.83 8.49z" fill="#a8945c"/><path d="M250.6 87.77v-6.43h5.8c3.38 0 3.38 0 3.38 3.34v6.7c0 1-.32 1.25-1.27 1.22-2.27-.06-4.59 0-6.82 0a3.53 3.53 0 0 1-1.94-.75l-5.82-5c-.24-.2-.5-.37-1-.72v6.42a6.48 6.48 0 0 1-1 .14h-7.7c-.85 0-1.12-.27-1.12-1.11v-9.25c0-.69.2-1 1-1h8.05a3 3 0 0 1 1.59.71l6.85 5.73zm-72.09 4.85a13.84 13.84 0 0 1-2.23 0 28.26 28.26 0 0 1-8.39-1.62 13.63 13.63 0 0 1-3.2-1.69c-1.89-1.41-2-3.61 0-4.85a19.72 19.72 0 0 1 5.79-2.46 30.21 30.21 0 0 1 16.25.53 13.19 13.19 0 0 1 3.38 1.63c2.35 1.62 2.43 3.92 0 5.37a22.59 22.59 0 0 1-6.19 2.37 33.91 33.91 0 0 1-5.41.72zm-4.94-4.27a9.7 9.7 0 0 0 7.93 0l.43-.19c1.21-.61 1.17-1.74.16-2.57-1.94-1.57-7-1.62-8.94-.08-1.1.92-1.16 2 .08 2.64zM211.5 88l6.42 4.3v.28h-2.09a14.12 14.12 0 0 0-1.84 0c-3.78.43-7.26-.17-10.09-3a3.56 3.56 0 0 0-.76-.37v2.42c0 .75-.22.92-.91.92H195c-.28 0-.8-.38-.8-.58-.06-3.49 0-7 0-10.57.55 0 1-.06 1.42-.06h14.68a12.92 12.92 0 0 1 3.8.72 2.84 2.84 0 0 1 2 2.81 2.9 2.9 0 0 1-2.45 2.66c-.59.16-1.24.24-2.15.47zm-8.19-1.17c1.22-.13 2.42-.2 3.6-.43a1.26 1.26 0 0 0 .78-.92 1.57 1.57 0 0 0-.78-1.06 4.64 4.64 0 0 0-1.77-.26c-2.26-.05-2.33 0-1.85 2.67zM45.67 81.24l8.78 11.27h-5.51c-.32 0-.67-.43-.92-.72l-2.9-3.61L37 94.8l-8-6.68-2.93 3.55a2.94 2.94 0 0 1-1.72.83c-1.45.12-2.91 0-4.72 0l8.9-11.32 4.88 3.94a27 27 0 0 1 2.62 2.18c.79.8 1.37.61 2.14 0l6.52-5.32a8.36 8.36 0 0 1 .98-.74zm110.16 6.91l-8.12 6.63-8-6.65-2.93 3.58a2.71 2.71 0 0 1-1.62.79c-1.45.11-2.92 0-4.8 0l8.83-11.27 2.14 1.66 5.27 4.34c.92.84 1.49.69 2.34 0l6.42-5.25c.29-.22.58-.41 1-.68l8.76 11.26h-5.51c-.32 0-.66-.44-.91-.74l-2.87-3.67zm-58.92-3.47v6.52c0 1-.29 1.34-1.31 1.31a115.47 115.47 0 0 0-6.71 0c-1 0-1.29-.32-1.29-1.33v-5.23c0-1.06-.35-1.35-1.33-1.28s-2 0-2.93 0c-.76 0-1.09-.21-1.12-1 0-2.31 0-2.31 2.29-2.31h16.35c1.11 0 1.48.35 1.34 1.4a5 5 0 0 0 0 1.09c0 .7-.3.92-.92.92-1.42-.11-2.8-.09-4.37-.09z" fill="#db1715"/><path d="M114.63 156h-1.84c-7.08 0-14.15-.06-21.23 0a6.33 6.33 0 0 1-5.5-2.28 22.77 22.77 0 0 0-2.41-2.2c.76-.06 1.1-.1 1.44-.1h25.62a1.83 1.83 0 0 1 1.91 1.12c.57 1.05 1.24 2.06 2.01 3.46zm93.37-4.59a27.59 27.59 0 0 1-3.67 3.58 6.88 6.88 0 0 1-3.54.92h-19.64-3.87l2.51-4.26a1 1 0 0 1 .75-.27z" fill="#a8945c"/><path d="M262.39 92.53V81.3h8.75c.74 0 1 .22 1 1v9.27a1.3 1.3 0 0 1-.67 1l-9.08-.04z" fill="#db1715"/><path d="M158.16 107.91h-6.32-3.78c-.92 0-1.31-.29-1.28-1.27s.53-1.11 1.33-1.09h6.08a4 4 0 0 1 3.97 2.36z" fill="#a8945c"/><g fill="#db1715"><path d="M280.33 84.32a2.91 2.91 0 0 1-2.72 3.09h-.29a3 3 0 0 1-3.18-2.87 1.77 1.77 0 0 1 0-.23 3 3 0 0 1 3-3h.06a2.89 2.89 0 0 1 3.12 2.69c.01.09.01.21.01.32zM278.78 86a2.25 2.25 0 0 0 .23-3.16l-.14-.15a2.3 2.3 0 0 0-3.19-.06 2.41 2.41 0 0 0 0 3.4l.08.08a2 2 0 0 0 2.89 0l.18-.19zm-150.23 85.43L146 191.87l17.38-20.44 23.86 44.53h-4.74c-2.08 0-4.15-.05-6.23 0a1.75 1.75 0 0 1-1.83-1.07q-6.09-11-12.26-22l-.7-1.2L146 210.11l-15.9-18.25-.92 1.57-11.63 21.27a2.07 2.07 0 0 1-2.16 1.29c-3.45-.09-6.91 0-10.66 0zm-19.19 8.75L128 145.3l18 21.57 18-21.57 18.57 34.92-1.3.11h-9.52a1.75 1.75 0 0 1-1.84-1.08l-6-11.17-.92-1.56-17 20.83-17-20.82-4.3 8-2.67 4.93a1.79 1.79 0 0 1-1.29.84c-3.54.08-7.08 0-10.62 0a5 5 0 0 1-.75-.12z"/><path d="M278.78 85.94L277 84.85l-.5 1.15-.46-.08a11.56 11.56 0 0 1 .08-2.63c.05-.26 1-.46 1.49-.43a1.37 1.37 0 0 1 .92.86 13.37 13.37 0 0 1 .25 2.27zm-160.4 6.68a13.84 13.84 0 0 1-2.23 0 28.35 28.35 0 0 1-8.36-1.56 13.19 13.19 0 0 1-3.23-1.72c-1.89-1.41-2-3.61 0-4.85a19.72 19.72 0 0 1 5.79-2.49 30.17 30.17 0 0 1 16.24.53A13.09 13.09 0 0 1 130 84.2c2.35 1.62 2.43 3.92 0 5.37a22.71 22.71 0 0 1-6.19 2.37 34.05 34.05 0 0 1-5.43.68zm-4.95-4.27a9.72 9.72 0 0 0 7.94 0l.42-.19c1.22-.61 1.18-1.74.17-2.57C120 84 115 84 113 85.51c-1.1.92-1.17 2 .08 2.64zM68 92.62a13.84 13.84 0 0 1-2.23 0A28.2 28.2 0 0 1 57.43 91a12.9 12.9 0 0 1-3.2-1.69c-1.89-1.41-2-3.61 0-4.85A19.63 19.63 0 0 1 60.07 82a30.17 30.17 0 0 1 16.24.53 12.87 12.87 0 0 1 3.33 1.63c2.36 1.62 2.44 3.92 0 5.37a22.71 22.71 0 0 1-6.19 2.37 34.05 34.05 0 0 1-5.45.72zm-4.9-4.27a9.72 9.72 0 0 0 7.94 0l.41-.19c1.23-.61 1.19-1.74.18-2.57-1.95-1.52-7-1.58-8.94 0-1.11.92-1.17 2 .08 2.65zm157.8 4.18V81.3h8.76c.72 0 1 .22 1 1l-.05 9.27a1.3 1.3 0 0 1-.67 1l-9.04-.04z"/></g></svg>