<svg xmlns="http://www.w3.org/2000/svg" viewBox="0 0 300 300" fill="#004e94"><path d="M150.07 167c-10.67 0-14.23 0-19.52-1.46-1.83-.64-5.12-1.56-7.49-5.32-4.38-7.52-4.38-21.64-4.38-28.42s0-18.8 4.38-26.22a12.47 12.47 0 0 1 7.49-5.41c5.29-1.37 8.85-1.37 19.52-1.37 10.41 0 14 0 19.35 1.37 1.83.64 5 1.56 7.21 5.41 4.75 7.42 4.75 20.26 4.75 27 0 6.6 0 20.08-4.75 27.6-2.18 3.76-5.38 4.68-7.21 5.32-5.42 1.5-8.94 1.5-19.35 1.5m0-30.36c9 0 8.82 0 8.82 2.93V158h12.59v-51.14h-12.59v15.36c0 3 .13 3-8.82 3-9.13 0-9.08 0-9.08-3v-15.36h-12.41V158H141v-18.45c0-2.93-.05-2.93 9.08-2.93m0 43.47c9.11 0 25.67.84 35.1-9.63 4.57-5.1 5.74-8.43 8-15.67 2-6.33 1.73-10.09 2.38-17.06a79.42 79.42 0 0 0-1.29-20.07c-1.91-9.81-3.37-15.13-7.84-19.62 5.93-3 6.75-11.92 5.93-18 0 0-4.55-2.26-7.57-3.39-3.31-1.24-8.68-2.57-8.68-2.57 0 4.77.55 12-3 14.4-3.65 2.11-12.59 0-14-4.59-.46-1.38-.91-6.14 0-12.1a41.75 41.75 0 0 0-9.13-1.1 36.51 36.51 0 0 0-8.95 1.1c.64 6 .47 10.72 0 12.1-1.54 4.59-10.39 6.7-14 4.59-3.93-2.39-3-9.63-3-14.4 0 0-5.76 1.42-9.31 2.75-2.87 1.08-7.21 3.21-7.21 3.21-.91 6.05 0 14.94 5.94 18-4.47 4.49-5.94 9.81-7.85 19.62a91.42 91.42 0 0 0-1.09 20.07c.45 7 .45 10.73 2.09 17.06 2.38 7.24 3.77 10.64 8.58 15.67 9.76 10.23 25.75 9.63 34.91 9.63M260 192.34h.62c.6 0 1.18-.06 1.18-.69s-.48-.65-1.11-.65H260zm2.34-.73a1 1 0 0 1-.46.86 1.61 1.61 0 0 1-.64.19c.52.18.65.31 1.25 1.67H262c-.62-1.36-.78-1.61-1.7-1.61h-.3v1.61h-.47v-3.7h1.55c1.26 0 1.26.87 1.26 1m-1.34-2.28a3.1 3.1 0 1 0 3.1 3.09 3.08 3.08 0 0 0-3.1-3.09m0 6.63a3.54 3.54 0 1 1 3.53-3.54A3.53 3.53 0 0 1 261 196m-171-.22h-6.42v15.46c0 4.38-1.76 6.59-5.34 6.59a4.33 4.33 0 0 1-3.15-1.29c-.91-.92-1.36-2.45-1.36-4.68v-16.08H67.4v16.61c0 3.66.83 6.27 2.55 8s3.63 2.45 6.94 2.45a9.54 9.54 0 0 0 6.77-3.66v3H90z"/><path d="M189.07 202.88a6.7 6.7 0 0 0-1.94-4.92c-1.82-1.83-4.43-2.89-8.18-2.88s-10.12.79-10.85 8h6.36c-.08-3.34 4.16-3.05 4.16-3.05a5.54 5.54 0 0 1 3.49 1.15 2.82 2.82 0 0 1 1 2.23c.07 1.79-.78 2.65-6.75 3.23-4.59.44-10.08 1.7-10.08 8.33a7.37 7.37 0 0 0 2.08 5.33 9.73 9.73 0 0 0 7 2.56c3.8 0 6-1 7.94-3.14l.31 2.45h6.12v-1c-.8-.62-.62-3.23-.62-3.23zm-16.5 11.86c-.17-2 1-3.41 4-3.92.78-.16 1.6-.24 2.38-.36a9.2 9.2 0 0 0 3.82-1.32v4c0 3.27-3.24 4.5-5.61 4.46s-4.41-.91-4.57-2.89m-30.83 14.55v-33.45h-6v3.3a8.65 8.65 0 0 0-7.25-4c-7.57 0-12 5.37-12 14 0 4.41 1.39 8.33 3.81 10.77a9.54 9.54 0 0 0 7.22 3 9.78 9.78 0 0 0 7.87-4v10.4zm-12.52-11.63a5.25 5.25 0 0 1-4.08-1.7c-1.51-1.53-2.34-4-2.34-7a9.92 9.92 0 0 1 2.49-7 5.11 5.11 0 0 1 3.93-1.74c3.71 0 5.66 2.38 6.23 6.71.08.66.12 3.06.08 3.51-.41 4.64-2.39 7.2-6.31 7.2m-93.77 4.53h6.9V206.5h14.48v15.64h6.9V187h-6.9v13.46H42.37V187h-6.9z"/><path d="M104.09 217.75c-2.72.07-4.85-1.11-5.24-3.48h-6.42c.31 6.65 7 8.66 11.57 8.56s6.7-1.19 8.76-3.26a7.45 7.45 0 0 0 2.17-5.45c0-5.14-3.88-6.82-8.3-7.88l-1.39-.32c-3.43-.68-6.26-1.36-6.1-3.36s2.32-2.43 4-2.48 3.09.23 4.1 2.25h6.6c-.66-5.11-5.33-7.32-10.29-7.25s-10.68 2-10.68 7.69c0 5.34 3.68 7 8.1 7.92l1.78.39c3.31.7 5.79 1.36 5.84 3.55s-1.79 3.05-4.51 3.12m63.85-21.97h-6.6l-5.63 20.27-5.85-20.27H143l9.12 26.36h6.81zm36.25-.85c-2.06.3-4.52 2.66-5.58 5.46v-4.61h-6v26.36h6.4v-12.59c0-2.86.18-5 1.5-6.71a6.05 6.05 0 0 1 4.5-2.5 9.61 9.61 0 0 1 2.75.4v-5.69a10.4 10.4 0 0 0-3.53-.12m28.38 9.19a8.86 8.86 0 0 0-2.35-6.53 9.38 9.38 0 0 0-6.93-2.51c-3.11 0-5.45 1.66-7.34 4.65v-3.95h-6v26.36h6.33v-15.55a6.66 6.66 0 0 1 1.58-4.84 5.87 5.87 0 0 1 4.36-1.61c2.93.06 3.92 1.75 4 5.51v16.49h6.32zm24.87-1.22a6.71 6.71 0 0 0-2-4.92c-1.82-1.83-4.85-2.9-8.61-2.89s-10.11.8-10.85 8h6.37c-.09-3.34 4.16-3.05 4.16-3.05a6.91 6.91 0 0 1 3.91 1.15 2.82 2.82 0 0 1 1 2.24c.06 1.78-.79 2.64-6.75 3.23-4.6.44-10.09 1.69-10.09 8.33a7.35 7.35 0 0 0 2.08 5.32 9.72 9.72 0 0 0 7 2.56c3.8 0 6-1 7.94-3.14l.31 2.44h6.12v-1c-.79-.63-.61-3.24-.61-3.24zM241 214.75c-.16-2 1-3.4 4-3.92.78-.16 1.6-.23 2.38-.35a9.22 9.22 0 0 0 3.82-1.33v4c0 3.26-3.24 4.49-5.6 4.45s-4.41-.91-4.59-2.89"/></svg>