<svg xmlns="http://www.w3.org/2000/svg" viewBox="0 0 300 300"><path d="M214 158.78l2.23-5.25q4.84-11.39 9.69-22.82 2.53-6 5-11.94a.71.71 0 0 1 .79-.51h16c.49 0 .67.16.61.65v.09c0 1.52-.24 1.57 1.49 1.27l10.12-2a14.11 14.11 0 0 1 8.18.55 6 6 0 0 1 3.08 2.41c.32.53.71.5 1.19.38q4.88-1.2 9.76-2.38a33.28 33.28 0 0 1 7.2-1.29 13.68 13.68 0 0 1 6.81 1.46 4.92 4.92 0 0 1 2.55 4.17 11.46 11.46 0 0 1-1.27 5.55q-4.27 10.25-8.53 20.52l-3.66 8.77c-.13.33-.27.55-.7.54h-16.32a2.14 2.14 0 0 1-.4 0l1.27-3q5.36-12.53 10.7-25.06a14.84 14.84 0 0 0 .85-2.85 1.59 1.59 0 0 0-1.21-2.05 6.16 6.16 0 0 0-1.65-.25 34.72 34.72 0 0 0-3.68.11 3.24 3.24 0 0 0-2.77 2.08q-2.22 5.25-4.42 10.51-4.21 10-8.4 19.93a.79.79 0 0 1-.86.58h-15.93a4.67 4.67 0 0 1-.7 0l1.31-3.07q4.93-11.5 9.86-23a38.44 38.44 0 0 0 1.62-4.43 1.81 1.81 0 0 0-1.57-2.49 38.91 38.91 0 0 0-5.29 0c-1.4.07-2 1.22-2.55 2.4l-5.84 13.48q-3.65 8.38-7.33 16.74a.58.58 0 0 1-.6.42h-16.28a3.3 3.3 0 0 0-.35-.22zm-35.37-28.04l1.38-3.59a14.05 14.05 0 0 1 3.57-5.54 12.33 12.33 0 0 1 8.2-3.37q12 0 24 0a9.31 9.31 0 0 1 5 1A5.54 5.54 0 0 1 223 126c-.34 1-.81 2-1.22 3.06l-7.32 17.66-2.64 6.27a8.58 8.58 0 0 1-5.41 4.88 17.57 17.57 0 0 1-5.74.94h-21.4c-2.13 0-4.27 0-6.4-.11a5 5 0 0 1-3.61-1.5 5.11 5.11 0 0 1-1-5.67c1.6-4.09 3.31-8.12 5-12.19a8.61 8.61 0 0 1 2-3.27 6.75 6.75 0 0 1 4.24-1.81l14.33-.89 9.67-.62a.8.8 0 0 0 .58-.42q1.13-2.72 2.19-5.49a4.16 4.16 0 0 0 .24-1.4 1.82 1.82 0 0 0-1.56-1.94 26 26 0 0 0-2.93-.17h-2.07a2.57 2.57 0 0 0-2.29 1.49c-.87 1.73-1.67 3.52-2.49 5.28-.14.3-.21.6-.67.59H179a2.33 2.33 0 0 1-.37.05zm22.5 7.51h-.61l-6.21.43a5 5 0 0 0-4.45 3.37c-.64 1.45-1.21 3-1.79 4.43-.47 1.2-1 2.4-1.35 3.64a1.93 1.93 0 0 0 1.82 2.71c1.13.09 2.26.06 3.39.11a3.47 3.47 0 0 0 3.61-2.32c1.09-2.47 2.28-4.9 3.4-7.36l2.19-5.01zm-140.96-7.47a11.74 11.74 0 0 1 .37-1.19 43.87 43.87 0 0 1 2.34-5.22 11.71 11.71 0 0 1 10.22-6.09c8-.14 16.05 0 24.08 0a10 10 0 0 1 4.67.85 5.55 5.55 0 0 1 2.53 7.15q-4 9.9-8.16 19.76l-2.77 6.62a8.93 8.93 0 0 1-6.06 5.39 23.73 23.73 0 0 1-6.91.81H60.29c-2 0-3.92 0-5.88-.1a5.14 5.14 0 0 1-4.62-7.52l4.37-10.68.88-2.11a6.48 6.48 0 0 1 6-4.15l13-.82 10.65-.63a.82.82 0 0 0 .84-.61l2-5.18a4.61 4.61 0 0 0 .32-1.69 1.93 1.93 0 0 0-2.06-1.92c-1.49-.07-3-.06-4.5 0A2.52 2.52 0 0 0 79 124.9c-.86 1.72-1.68 3.47-2.46 5.23a.86.86 0 0 1-.92.65H60.17zm22.41 7.5a3.44 3.44 0 0 0-.46 0l-4.49.31a21.05 21.05 0 0 0-2.63.23 5.28 5.28 0 0 0-3.77 3.48l-1.22 3c-.62 1.62-1.3 3.22-1.82 4.87a1.92 1.92 0 0 0 1.81 2.69c1.13.08 2.27 0 3.4.1a3.48 3.48 0 0 0 3.6-2.35l4.79-10.55a51.92 51.92 0 0 0 .79-1.78zm12.72 20.5l1.36-3.23 10.56-24.77q2.5-5.93 5-11.86a.88.88 0 0 1 1-.66h15 1.52v1.37c0 .52.17.79.73.69l8.28-1.55a23.89 23.89 0 0 1 6.91-.89 9.69 9.69 0 0 1 6.13 2.27c1.74 1.6 2 3.59 1.41 5.78a9.84 9.84 0 0 1-.52 1.53l-12.81 30.9a.6.6 0 0 1-.63.46h-16.52a1.17 1.17 0 0 1-.29 0 4.33 4.33 0 0 1 .13-.42q4.86-11.31 9.7-22.62l2.07-4.9a15 15 0 0 0 .83-3.16 1.6 1.6 0 0 0-1.17-1.77 3.29 3.29 0 0 0-1-.23l-4.78.13c-1.27.09-1.91 1.1-2.38 2.19l-6.47 14.84q-3.37 7.76-6.78 15.49c-.13.3-.26.52-.66.52q-8.1 0-16.22 0a1.3 1.3 0 0 0-.4-.11zM37.34 130.9l1.58-3.88a6.94 6.94 0 0 0 .4-1.19 1.65 1.65 0 0 0-1.26-2.14 33.54 33.54 0 0 0-5.11-.18c-1.34.07-2.1 1.15-2.63 2.34l-4.16 9.46L20 149a9.05 9.05 0 0 0-.69 2.4 1.54 1.54 0 0 0 1.38 1.92 17.16 17.16 0 0 0 5.63 0 2.34 2.34 0 0 0 1.82-1.5l3.82-8.76a.83.83 0 0 1 .89-.62h16.56.59l-1 2.34-3.84 8.29a9.16 9.16 0 0 1-6.22 5.18 18 18 0 0 1-5.43.49H8.8a12.68 12.68 0 0 1-2.13-.12 7.58 7.58 0 0 1-4-1.8 3.63 3.63 0 0 1-1.16-4 50.77 50.77 0 0 1 2.19-6.13l7.16-15.9 3.57-7.55a8.24 8.24 0 0 1 6.24-4.79 12.46 12.46 0 0 1 2.58-.24h28.12a8.54 8.54 0 0 1 3.36.73 5.33 5.33 0 0 1 3 6.47l-1.26 3.94v.11c-.48 1.4-.48 1.4-1.94 1.4h-17zm112.83 13.17l1.64-4.4 1-2.59a.62.62 0 0 1 .44-.37H170l-.62 1.74-1.9 5.21a.56.56 0 0 1-.62.47h-16.22zm143.69 14.8l1.33-3.65c.09-.22.69-.2 1.17-.32l-.25 2.42h.1a13.71 13.71 0 0 0 .92-1.57 1.19 1.19 0 0 1 1.62-.72l-.61 1.89a14.86 14.86 0 0 0-.46 1.43c-.12.48-.36.62-.86.44l.74-2.2h-.12l-1.08 1.82a.76.76 0 0 1-1 .45h-.05l.25-2.46h-.11l-.86 2.53zm-2.33-.04l1.1-3.15-1-.07c0-.42.16-.63.59-.61h2.47c0 .54-.24.7-.66.63a.62.62 0 0 0-.78.42.51.51 0 0 0 0 .13c-.2.71-.51 1.38-.72 2.11-.16.54-.43.71-1 .54z"/><path d="M1.25 171.02h297.5v7.42H1.25z" fill="#d73c31"/><path d="M1.25 178.45h297.5v7.42H1.25z" fill="#ffbe2c"/></svg>