<svg xmlns="http://www.w3.org/2000/svg" viewBox="0 0 300 300"><path d="M215.43 122.43a1.58 1.58 0 0 1-1.72 1.7h-4.48c-.11.3-.14.93-.46 1.18a4.12 4.12 0 0 1-1.7.56 7 7 0 0 1-1.45 0h-1.43c.24 1.67-.15 2.22-1.88 2.37-.95.09-1.92 0-2.89 0 0 0-.14.11-.13.17.14 1.5-.18 2-1.7 2.17a32.11 32.11 0 0 1-3.4 0s-.09.12-.08.18c.36 1.44 0 2.13-1.41 2.32a27.17 27.17 0 0 1-3.61 0 1.51 1.51 0 0 0 0 .39c.14 1 0 1.36-.93 1.54a13.05 13.05 0 0 1-2.86.11 12.34 12.34 0 0 1-1.9-.4 1.26 1.26 0 0 0-.12.29c-.07 1.66-.56 2.15-2.23 2.08a7.4 7.4 0 0 1-1.67-.29l-1.57-.65c-.07 0-.18.06-.2.12-.44 1.34-1.07 1.81-2.42 1.52a22.67 22.67 0 0 1-2.88-1c-1.31 1.24-2.41 1.16-4.71-.42-1.39 1.05-1.95 1-4.28-.65-1.32 1.19-2.39.34-3.43-.5-1.71 1.05-2.12 1-3.76-.25-.82-.63-.89-.62-1.67.37l1.15.55a3.48 3.48 0 0 1 1.95 4.53 3.38 3.38 0 0 1-.76 1.17 6.49 6.49 0 0 1-4.12 2.14c-.65.11-1.31.13-2 .23a8.84 8.84 0 0 0-1.16.41l1.36 1a2.18 2.18 0 0 1 2.89-.23c1.7-1 2.22-.86 3.93.51 1.37 1.11 1.7 2.17 1.24 3.57a3.45 3.45 0 0 1-3.09 2.5V150a12.25 12.25 0 0 1-1.05 1.12 4.05 4.05 0 0 1-.95.69c-.69.32-1.07 0-1.05-.72a8.51 8.51 0 0 1 .09-.85l-1.34 1.21c-.42.33-.95.7-1.42.3-.23-.21-.19-.78-.19-1.19 0-.56.22-1.11-.48-1.6-.77 1.3-1.42 2.78-3.34 2.92l-.13-1.58-.95.93a4.94 4.94 0 0 1-.94.71c-.64.31-1 .08-1-.64v-.4a3.07 3.07 0 0 0-.07-.42 10.29 10.29 0 0 1-1.41 1.22 1.57 1.57 0 0 1-1.18.2c-.18-.05-.33-.69-.26-1a2 2 0 0 0-1-2.33c-.68-.46-1.3-1-2-1.6a9.42 9.42 0 0 0-1.63 2.72 1.26 1.26 0 0 1-.88.6c-.3 0-.63-.33-.9-.56s-.13-.37-.22-.65l-1 .73a6.26 6.26 0 0 1-5.85 1 2.32 2.32 0 0 0-1.11 0 10.1 10.1 0 0 1-4.31.07 2.65 2.65 0 0 1-1.32-.51c-.65-.72-1.35-.51-2.14-.46a25.65 25.65 0 0 1-3.92 0 2.37 2.37 0 0 1-2.39-1.9c-2.48 0-5 .41-6.67-2.23l1-.78q4.36-3 8.75-5.87c.44-.29.83-.52.78-1.2 0-.31.42-.73.75-1a37.21 37.21 0 0 0 3.51-2.62l-1.25.38a13.35 13.35 0 0 1-4.39.73c-1.67-.05-1.88-.28-1.91-2l-2.78.64a11.61 11.61 0 0 1-2.35.21c-1.53 0-1.84-.56-1.38-2a1 1 0 0 0 0-.35l-3.33.56a14.37 14.37 0 0 1-2.62.11c-1.49-.11-2.07-1-1.26-2.19.11-.2.21-.41.3-.62l-1.19.07a43.82 43.82 0 0 1-4.59.24c-1.84-.09-2.12-.75-1.25-2.37a4.09 4.09 0 0 0 .18-.49 16.79 16.79 0 0 1-2.12.25 25.48 25.48 0 0 1-4.19-.11c-1.57-.23-1.76-1-.73-2.25l.4-.56-4.28.26a7.47 7.47 0 0 1-1.83-.16c-1-.22-1.19-.81-.69-1.67.15-.25.34-.49.66-.93l-2.45.14-5.26.15a4.15 4.15 0 0 1-.79-.08c-1.79-.3-2-.69-1.6-2.52h-1.41c-3.51-.09-7-.08-10.52-.32a32.61 32.61 0 0 1-5.27-1.07 4.42 4.42 0 0 1-1.67-.71 16.91 16.91 0 0 0-5.4-2.2 16 16 0 0 1-5.47-2.78 8.08 8.08 0 0 1-3-4.45 1 1 0 0 1 .42 0c3 2 6.52 2.76 10.06 3.24a84.81 84.81 0 0 0 17.08.62l18.34-1.33a211.83 211.83 0 0 1 25.55-.8 81.69 81.69 0 0 1 18.6 2.59 24.77 24.77 0 0 1 8.44 3.89c1.25 1 2.37 2.06 3.65 3.18a75.79 75.79 0 0 1 14.58-1.11l-.24-1.3c1.7.33 3.31.72 4.94.94 2 .28 4 .45 6 .6a5.94 5.94 0 0 0 1.67-.31 95 95 0 0 0 13.76-4.42 60.85 60.85 0 0 1 19.51-3.89 175.06 175.06 0 0 1 18 .23l26.43 1.3a58.26 58.26 0 0 0 14.67-1.17 27.49 27.49 0 0 0 6.22-2.11 1.54 1.54 0 0 1 1-.15c-.32.42-.62.87-1 1.26a13.07 13.07 0 0 1-5.17 3.29c-2.31.81-4.68 1.45-7.17 2.23-.15 1.31-1.31 1.85-2.52 2.3a23.54 23.54 0 0 1-6.43 1.29c-2.32.18-4.64.2-7 .29h-.91c.1 1.46-.16 1.93-1.56 2.06a50.7 50.7 0 0 1-5.65.14c-1.4 0-2.78-.24-4.19-.4a1.7 1.7 0 0 0-1.51.51 3.1 3.1 0 0 1-1.71.83c-1.41.34-2.94.34-4.62.41zM154.66 120c-4.95-.34-9.42 1.57-14.21 2.3a3.17 3.17 0 0 0 2.5.9h4.73a12.79 12.79 0 0 1 1.63.23v.3l-7.7 1c.7 2 2.48 1.59 4.07 1.81l-1.92.64 1 .89a4.41 4.41 0 0 1-3.36-1.66c-1.14-1.33-2.23-2.71-3.28-4.12a21.32 21.32 0 0 0-11.5-8.09 73.34 73.34 0 0 0-17-2.82 194.38 194.38 0 0 0-27.72.85c-7.41.69-14.8 1.28-22.24 1.3A80.34 80.34 0 0 1 44 112.41c-.39-.08-.77-.14-1.16-.2A3.24 3.24 0 0 0 44 113a37.24 37.24 0 0 0 11 2.31c7.65.63 15.26 0 22.87-.63l10.75-.89a122.19 122.19 0 0 1 15.78-.06 73.13 73.13 0 0 1 14.42 2.17c5.92 1.58 11.29 4.1 15.25 9l.1.1c2.78 2.82 5.93 4.92 10 5.23.06 0 .11.11.24.24l-2.29 1.06a9.32 9.32 0 0 0 4.44-.3c-1.61 1.59-3.64 1.55-5.73 1.35a2.52 2.52 0 0 0 2 .94 10.61 10.61 0 0 0 6.67-1.44c1-.62 2-1.22 3.07-1.77a11.05 11.05 0 0 1 1.55-.56l.13.24a15.74 15.74 0 0 0-4.11 3.33c1.2-.39 2-1.18 3.22-1l-.47 1.24c1-.5 1.76-.83 2.46-1.26a28.21 28.21 0 0 0 2.38-1.67 7.54 7.54 0 0 1 5.07-1.49 25.3 25.3 0 0 0 2.89.1 19.71 19.71 0 0 0 2.84-.44 1.2 1.2 0 0 0 1.06-.94h-4.09c-.7 0-1.4-.11-2.1-.1a4 4 0 0 0-1 .27 3.79 3.79 0 0 1 1.18-1.11 6.32 6.32 0 0 1 4.71-1.26 2 2 0 0 0 .9 0 2.58 2.58 0 0 1 2.59.39 1.77 1.77 0 0 0-1-2.52 8.34 8.34 0 0 0-4.18-.73h-1.79c-.19-.56-.34-1-.5-1.38l.68.08a1.45 1.45 0 0 0-1.26-1.24 20.63 20.63 0 0 0-2.33-.4l-6.55-.6a.78.78 0 0 0-.24.09zm11.45.07c.33 1.21.33 1.22 1.4 1.3a8.66 8.66 0 0 1 4.16 1.06 2 2 0 0 0 2 .17l9.8-3.45a79.84 79.84 0 0 1 18.56-4.3 147 147 0 0 1 19.46-.45c8.59.27 17.19.65 25.79-.13a36.81 36.81 0 0 0 9.23-1.8q.45-.19.87-.42a1.58 1.58 0 0 0-1-.1 72.58 72.58 0 0 1-12.32 1c-8.52.08-17-.63-25.52-1.11a174.9 174.9 0 0 0-22.08-.18 56.15 56.15 0 0 0-15.29 3.08l-14.89 5.22c-.08 0-.12.09-.18.15zm-31.49 29.07l.28.1a2.43 2.43 0 0 0 .3-.52 9.47 9.47 0 0 1 4.66-5.14 2.75 2.75 0 0 1 .83-.39l4.24-.55c.79-.09 1.58-.08 2.36-.19a3.88 3.88 0 0 0 3.45-2.83 3 3 0 0 0-2.62-4.09 7.29 7.29 0 0 0-6.12 2.07v.23l1 .52c-.09.12-.11.17-.14.18l-.91.53a16.92 16.92 0 0 0-6.12 6 7.49 7.49 0 0 0-1.21 4.07zm-49-33.26v-.29l-17.3 1.26a152.54 152.54 0 0 1-17.32-.08 7.16 7.16 0 0 0 1.72.65 42.14 42.14 0 0 0 8.74 1 94 94 0 0 0 15.72-1.11c2.82-.4 5.64-.95 8.43-1.44zm37.08 25.34l-3 2.4c-1 .8-2.09 1.6-3.15 2.37l-3.26 2.32a4.85 4.85 0 0 0 3.41.34 11.31 11.31 0 0 0 4.44-2.14c1.89-1.41 3.72-2.93 5.56-4.41a1.71 1.71 0 0 0 .3-.44h-2c-.61 0-1.39-.28-2.31-.45zm-2-1.07l-4.69-.36-9.12 6.11a16.86 16.86 0 0 0 1.67.51 5.8 5.8 0 0 0 4.27-.89q2.37-1.51 4.71-3.1c1.02-.7 2.02-1.42 3.13-2.28zm12.48 2.7c-1.31-.12-2.5-.27-3.7-.33a1.31 1.31 0 0 0-.77.4l-7 5.88a5.17 5.17 0 0 0-.49.56 3.94 3.94 0 0 0 .48.18 4.62 4.62 0 0 0 .65.07 8.53 8.53 0 0 0 6-2.22c1.56-1.33 3-2.78 4.55-4.16a2 2 0 0 0 .25-.39zm86.08-27v.28c1.24.24 2.47.55 3.72.71a102.15 102.15 0 0 0 16.68.77c2.31-.1 4.62-.46 6.91-.76a11.48 11.48 0 0 0 1.81-.56c-9.79.56-19.46-.29-29.15-.41zM70 120.88c2.3 1.12 14.94-.67 18.52-2.65a12.2 12.2 0 0 1-1.86-.69 1.78 1.78 0 0 0-1.6-.13 70.35 70.35 0 0 1-14 3c-.4.06-.9 0-1.09.54zm82 15.65a12.79 12.79 0 0 1 .13 2.47 5.79 5.79 0 0 1-.8 2.18 10.6 10.6 0 0 1-1.54 1.6l.1.25a27.36 27.36 0 0 0 3.72-.68 5.67 5.67 0 0 0 2.22-1.48 2.44 2.44 0 0 0-.68-3.9 3.8 3.8 0 0 0-3.15-.41zm-53.09-13.24c-1.2-.42-2.33-.83-3.48-1.18a1.12 1.12 0 0 0-.74.1 55.21 55.21 0 0 1-8.39 3.36c-.39.12-.7.31-.73.77 2.43.66 10.05-1.08 13.34-3.05zm6 2.61l-3.7-1.06a1.18 1.18 0 0 0-.74.15l-7.33 3.19a4.87 4.87 0 0 0-.83.67c2.47.67 9.5-1 12.6-2.93zm-25.39-2.5l.11.29c3.11.65 11.86-1.67 13.35-3.15a15.45 15.45 0 0 1-2.08-.71 1.36 1.36 0 0 0-1.34 0 53.67 53.67 0 0 1-8.89 3.15 9.56 9.56 0 0 0-1.15.47zm99.41 5.6c1.46 1.5 2.67 2.86 4 4.09a4.87 4.87 0 0 0 5 1 35 35 0 0 0-5.34-4.83 1.22 1.22 0 0 0-.72-.21c-.87-.05-1.73-.05-2.94-.05zm3.2 7c0-.19 0-.34-.09-.43l-4.48-5.66a1.4 1.4 0 0 0-.8-.36c-.6-.1-1.2-.14-1.82-.2a17.1 17.1 0 0 0 3.33 5.46 4.31 4.31 0 0 0 3.86 1.26zm10.77-4.17a26.59 26.59 0 0 0-5.31-4.45.83.83 0 0 0-.48-.18c-1 .1-1.92.24-3.07.38 2.62 2.4 4.91 5 8.86 4.23zm-82.44-3.18l-3.92-1.11-6.8 3.19c-.21.11-.35.39-.71.83a27.4 27.4 0 0 0 11.43-2.84zm15.06-8.13a5.18 5.18 0 0 0-5.25-.64c-1.26.5-2.5 1-3.75 1.61a8.33 8.33 0 0 0-.9.55 3.72 3.72 0 0 0 2.71.76c2.56-.07 4.78-1.26 7.19-2.21zm63.75 5l-.12.23a23.75 23.75 0 0 0 4.45 3.25 10.12 10.12 0 0 0 2.64.66 2.36 2.36 0 0 0 1.89-.44l-3.93-2.84c-1.1-.81-2.21-1.4-3.63-.84a4.75 4.75 0 0 1-1.3.09zm-86-7.86l-3 1.47a18.74 18.74 0 0 0-3.1 1.71c2.29 1 7.59-.12 9.34-1.76zm-.56 5.74l.11.35c3.37.71 6.3-.6 9.32-2l-3.51-1.45-5.6 2.91a2.07 2.07 0 0 0-.32.19zm27.35-.15c-1.42-1-2.65-1.45-4.05-.86a139.18 139.18 0 0 0-4.08 1.8 6.31 6.31 0 0 0-.9.63 4.58 4.58 0 0 0 4.37.47c1.51-.52 3-1.27 4.66-2zm-12 14.78c2.54.8 7.58-1 9.24-3.07a22.47 22.47 0 0 1-2.56-.56 1.48 1.48 0 0 0-1.46.23l-4.45 3.06a7.51 7.51 0 0 1-.78.41zm98-20.11c2.43 1.44 14.24 2.72 17.19 1.81a7 7 0 0 0-1-.23A74.16 74.16 0 0 1 221 118a11.64 11.64 0 0 0-4.92 0zm-45.22 11.79a23.23 23.23 0 0 0 2.29 5.45 3.21 3.21 0 0 0 3.09 1.5c-.2-.51-.32-.92-.5-1.31-.65-1.33-1.41-2.62-2-4s-1.46-1.55-2.86-1.57zm-57.35-6.61c-.85.5-1.75 1-2.63 1.59a9.33 9.33 0 0 0-2.54 1.74 10.37 10.37 0 0 0 8.34-2zm11 16.54c2.23.73 6.68-1.16 8.34-3.41l-3.17-.29a1.15 1.15 0 0 0-.71.22c-1.43 1.2-2.89 2.36-4.41 3.55zM203 127.09c-.23-.31-.31-.48-.44-.56-1.55-1-3.1-2-4.67-2.9a1.46 1.46 0 0 0-.87-.15c-.89.09-1.77.23-2.89.39 2.77 1.71 5.17 3.86 8.87 3.22zm-92.19-7.79a3.66 3.66 0 0 0 3.16.89 18.11 18.11 0 0 0 5-1.77 5.71 5.71 0 0 0 .77-.51c-3.32-1.17-6 .27-9 1.4zm17.39 30.47a5.22 5.22 0 0 0 4-1c2-1.27 2.14-3.49 3.11-5.29l-.21-.15zm10.78-12.23l-3.21-.26a.71.71 0 0 0-.49.12l-4.28 3.52c3.3.4 5.58-1.36 8-3.38zM118.76 126c-1.56.88-3.18 1.83-4.87 3 2.17.73 6.74-.32 7.91-1.62zm72-2.09c-2.54-2.91-4.8-3.89-7.7-2.81 2.4 1.6 4.51 3.46 7.69 2.83zm8.26-1.85c2.86 1.59 5.38 3.27 8.83 2.58-.23-.26-.32-.41-.45-.48l-4.65-2.4a1.7 1.7 0 0 0-.89-.12c-.84.09-1.69.25-2.84.42zm-3.58.12l.15-.38a37.88 37.88 0 0 0-3.69-2.43 4.35 4.35 0 0 0-4 .14c2.52 1.4 4.57 3.39 7.57 2.64zm-10.21 3.67l.19-.31-2.18-2c-1.35-1.29-2.88-1.32-4.75-.68 2.08 1.75 4 3.39 6.74 3zm-80.06-8.81c3.09 1.81 5.77.47 8.74-.59a11.34 11.34 0 0 0-8.75.59zm1.32 16c1.79.48 6.81-.88 8.44-2.22a14.18 14.18 0 0 1-2-.56 1.41 1.41 0 0 0-1.35.09l-4.33 2.18a5.5 5.5 0 0 0-.75.51zm103.9-13.7c3.05 1.42 6.19 2.39 9.61 1.67-2.19-.77-4.42-1.42-6.64-2a2.32 2.32 0 0 0-.91 0c-.7.14-1.39.28-2.07.38zm3.34 3.72l.09-.3-4.2-1.77a5.31 5.31 0 0 0-4.45 0c2.71 1.38 5.42 2.66 8.56 2.09zm-39.73 1.5c2 1.82 3.8 3.22 6.46 2.85a15.61 15.61 0 0 0-1.73-1.9c-1.29-1.31-2.85-1.3-4.73-.93zm-47.76 3.07c1.85 1.11 4.65.61 7-1.14a2.64 2.64 0 0 0-2.36-.81 17.48 17.48 0 0 0-4.6 2zm71.76-10.7v.4c2.44 1.27 4.94 2.35 7.84 2a15.82 15.82 0 0 0-5.28-2.38 13.09 13.09 0 0 0-2.58 0zm-105.31 1.59l.1.31c2.68.56 5-.61 7.56-1.62L98 116.14zm100-.36c2.47 1.55 4.77 2.66 7.56 2.22-2.18-1.59-4.34-3.18-7.59-2.22zM127 130l-3-1.2a38.85 38.85 0 0 0-4.45 2.49c2.8.63 4.99-.29 7.45-1.29zm40.43.76c.39 1.44.68 2.78 1.11 4a2.52 2.52 0 0 0 2.28 1.67l-1.79-6zm-35.43 1.1l-2.92-1-3.48 2.14c2.29.66 4.23-.17 6.43-1.17zm32-1c-.25 3 .46 4.57 2.23 4.92l-.85-4.86c-.3 0-.48-.08-.64-.09s-.45 0-.74 0zm-68.16-15.68a15.51 15.51 0 0 0-7.14 1.33c2.63.82 4.92-.09 7.14-1.33zm24.26 17.7a3.67 3.67 0 0 0-4.11 0 19 19 0 0 1-1.91.83 6 6 0 0 0-.6.36 11.33 11.33 0 0 0 6.62-1.19zm90.48-15c-2.39-1.41-5.56-2.35-6.8-1.37a10.29 10.29 0 0 0 6.8 1.35zM157 150.46c1.49-1.37 1.57-2.17.5-3.34a9.31 9.31 0 0 0-.84-.82c-.71-.61-1.14-.68-1.48-.28s-.23.81.49 1.42a3 3 0 0 1 1.33 3.02zm-9.75.2c1.11-.85 1.53-1.63 1.11-2.28a12.38 12.38 0 0 0-2-2.17c-.14-.12-.68 0-.89.21s-.1.56 0 .81a2.09 2.09 0 0 0 .63.66 2.79 2.79 0 0 1 1.19 2.77zm-5.9.33c1.41-1.42 1.45-2.22.35-3.34a12.97 12.97 0 0 0-.78-.7c-.77-.65-1.26-.74-1.57-.33s-.19.87.61 1.5a3 3 0 0 1 1.34 2.88zm9.84-.38a1.92 1.92 0 0 0 1-2.12 4.21 4.21 0 0 0-2.32-2.35.71.71 0 0 0-.68.17 1.07 1.07 0 0 0-.1.82 1.31 1.31 0 0 0 .51.56 3.21 3.21 0 0 1 1.59 2.92zm-6.86.17c.82-.56 1.4-1.38.92-2.23a9.42 9.42 0 0 0-2.06-2.12.8.8 0 0 0-.79.13 1.16 1.16 0 0 0 0 .93 1.87 1.87 0 0 0 .63.65 3.06 3.06 0 0 1 1.29 2.64zm9.75-.34c.87-.55 1.41-1.36.93-2.22a9.47 9.47 0 0 0-2.06-2.13c-.13-.13-.63 0-.78.13a.86.86 0 0 0-.11.81 2.36 2.36 0 0 0 .68.76 3.1 3.1 0 0 1 1.33 2.65zm-22.92-15.75a6.14 6.14 0 0 0 5.28-1.56 12.86 12.86 0 0 0-1.51-.39 1.6 1.6 0 0 0-1 .08 48.92 48.92 0 0 0-2.81 1.87zm5.38-5.92a4.34 4.34 0 0 0-5.07 1.26c1.86.63 3.37-.22 5.03-1.26zm23.75 2.3c-.28 2.05.2 3.13 1.8 4l-.29-4.24zM210 116c2.29 1 6 1.27 7 .55a15.63 15.63 0 0 0-7-.57zm-73.2 19.87a4.7 4.7 0 0 0 4.24-1.23c-.46-.15-.9-.34-1.37-.45a1 1 0 0 0-.72.06c-.73.46-1.45 1.03-2.14 1.57zM105 115.44a9.85 9.85 0 0 0-5.27.07c1.96 1.01 3.61.55 5.27-.07zm35 15c-1.49-.72-2.61-.13-3.73.71 1.28.75 2.32.54 3.73-.69zm16.41 3.14l1.81 1.52.27-.15-.2-2.66zM29.3 191.11h-7.83v-19.77a21.78 21.78 0 0 0-2.38 3.38l-2.12 3.34-2.22 3.44-6.35-9.95-.28.09v19.46H.18v-34c.39 0 .74-.09 1.08-.1h5.66a1.68 1.68 0 0 1 1.6.87l5.4 8.25.82 1.15a7.24 7.24 0 0 0 .67-.85l5.49-8.37a2 2 0 0 1 2-1.07h6.27c.31 1.14.39 32.32.13 34.13zm152.28-12.95H173v-7.34c.93-.26 15.82-.33 17.44-.09 1.55 10.54-4.85 18.41-13.07 20.42a17.464 17.464 0 0 1-8-34l.71-.15a17 17 0 0 1 15.35 4.72 38.21 38.21 0 0 1-5.48 5.66q-6.82-4.93-12.33-.85a9.51 9.51 0 0 0 5.78 17.15c3.6-.07 7.3-2.52 8.18-5.52zm-147.93-4.42a17.27 17.27 0 0 1 17.64-17c9.76 0 17.69 7.66 17.56 17.09-.15 11.12-7.73 17.83-17.54 17.84-10.21 0-17.66-7.56-17.66-17.93zm8.13 0c0 5.62 4.18 10.1 9.42 10.14s9.52-4.5 9.54-10.17a9.5 9.5 0 0 0-19 .06zm92.72.01c0 10.38-7.48 18-17.66 17.92-9.86 0-17.51-7.18-17.55-18 0-9.39 8-17 17.74-16.9s17.49 7.6 17.47 16.98zm-17.62-9.21c-5.06 0-9.48 4.31-9.45 9.19 0 5.68 4.27 10.21 9.53 10.18s9.45-4.57 9.42-10.28a9.4 9.4 0 0 0-9.5-9.09zm98.83-7.41H224c0 .41.08.75.08 1.11v23.69a9.16 9.16 0 0 1-7.42 9.12 7 7 0 0 1-1.44.15h-10.39a9.06 9.06 0 0 1-8.78-7.33 8.18 8.18 0 0 1-.16-1.56V158c0-.22 0-.43.06-.79 2.7-.18 5.38-.1 8.21 0V180a9.71 9.71 0 0 0 0 1.32 2.15 2.15 0 0 0 2.11 2h7.23a2.15 2.15 0 0 0 2.14-2.16v-22.48zm45.22 33.95v-7.68a2.82 2.82 0 0 1 .7-1.36q6.06-7.95 12.15-15.89l.89-1.24h-13.32a32.5 32.5 0 0 1-.14-7.66c1-.27 22.86-.31 24.27 0v3.62c0 1.41.29 2.92-.15 4.18s-1.62 2.37-2.51 3.51q-5.18 6.74-10.37 13.45c-.26.34-.5.69-.9 1.25h13.84V191c-.93.25-22.08.36-24.46.08zm-17.24-26.25h-13.23v-7.71h24.18c0 .42.09.81.09 1.19v5.52a3.54 3.54 0 0 1-.82 2.4q-6.12 7.82-12.19 15.7l-.93 1.31h13.67a36.88 36.88 0 0 1 .12 7.87h-24.32a9.93 9.93 0 0 1-.09-1.05v-5.79A3.3 3.3 0 0 1 231 182q6-7.81 12-15.67l.91-1.22zm-156.05-.02v26.3h-8.25v-6.5-6.57-13.12h-8.77v-7.78h25.61a34.49 34.49 0 0 1 .1 7.68zm204.04 26.3v-34h7.82c.33 1 .45 31.69.15 34zm-130.01-66.58l-.93.8-1.61-.81c.91-1.58.91-1.11-.13-2.45l3.07.34c.75.12.74.16.87 1.11l-1.3 1.06-.88-1.67c-.65 0-.72.5-.67 1a.72.72 0 0 0 .73.71h.06z"/></svg>