<svg xmlns="http://www.w3.org/2000/svg" viewBox="0 0 300 300"><path d="M16.24 83.59h267.53V216.4H16.24z" fill="#fe0000"/><path d="M264.51 109.34a6.73 6.73 0 1 0 6.74 6.84v-.13a6.73 6.73 0 0 0-6.74-6.71zm0 12.5a5.77 5.77 0 0 1-5.78-5.74h0 0a5.77 5.77 0 1 1 5.78 5.79zM258.65 175a9.08 9.08 0 0 1-1-3.68l-.18-4.1V140.8a17.35 17.35 0 0 0-.1-2.16 10.55 10.55 0 0 0-2.76-6.2 13.67 13.67 0 0 0-4.74-3.17 29.84 29.84 0 0 0-10.64-2.08c-2.28-.07-4.61 0-6.85.11a22.77 22.77 0 0 0-6.22 1.2 12.74 12.74 0 0 0-7.84 7 21.33 21.33 0 0 0-1.7 6.62 2.81 2.81 0 0 0 0 .58h11.73l.75-2.26a6.14 6.14 0 0 1 4.44-3.91 15.15 15.15 0 0 1 4.3-.32 14.05 14.05 0 0 1 4.67.92 4.6 4.6 0 0 1 3.19 4.87 2.92 2.92 0 0 1-1.54 2.58 7.78 7.78 0 0 1-2.14.8l-7 1.2-6.21.92a22.5 22.5 0 0 0-7.09 2.34A12.33 12.33 0 0 0 216 156a15.58 15.58 0 0 0-1.11 6.78A13 13 0 0 0 218 171a16.5 16.5 0 0 0 10.64 5.52 21.24 21.24 0 0 0 9-.75 13.72 13.72 0 0 0 7.73-5c.06-.08.18-.12.36-.24l.31.92.77 3.27a7.66 7.66 0 0 0 .3.92l.36.06h10.81a2.47 2.47 0 0 0 .47-.11v-.29a1.41 1.41 0 0 0-.1-.3zm-13-16a6.83 6.83 0 0 1-2.55 5 13.66 13.66 0 0 1-6.74 3.13 12.53 12.53 0 0 1-4.61.15 5.75 5.75 0 0 1-4.17-2.82 5.58 5.58 0 0 1 .65-6.07 10.39 10.39 0 0 1 3.18-2.31 30.51 30.51 0 0 1 6.85-2.17l6.59-1.56.83-.21c0 .37.07.66.06.92l-.1 5.99zM211 128.68v47.13h-11.68v-.19a.33.33 0 0 1 0-.14v-46.8c.48-.14 10.89-.18 11.68 0zm0-18.86v11.09c-.51.18-10.12.25-11.76.09v-11.18zM179.46 121h-11.72v-11.18h11.72c.14.55.17 10.35 0 11.18zm.05 7.59v47.22l-11.79-.02v-47.2h11.79zm-15.79.13v11.22a11.4 11.4 0 0 0-1.43-.18 9.47 9.47 0 0 0-5.66 1.54 13.15 13.15 0 0 0-4.93 5.93 16.84 16.84 0 0 0-1.58 7.22v21.17c-.7.2-11.49.2-12.14 0v-47h11.62l.92 5.75.37-.67c.41-.67.8-1.38 1.26-2a9.16 9.16 0 0 1 6.63-3.83c1.22-.16 2.43-.15 3.69-.22h.45c.71.19.8.24.8 1.07zM135 145.24a27.85 27.85 0 0 0-3.17-9.8 17.57 17.57 0 0 0-10.18-8.54 21.74 21.74 0 0 0-8.29-.92c-4.6.37-8.48 2.19-11.17 6.1a3.88 3.88 0 0 1-.42.39l-.49-4h-12c-.14.81-.12 60.3 0 60.91h12.52v-20.21h.2l1.65 2.19a12.2 12.2 0 0 0 7.89 4.79 22.48 22.48 0 0 0 7.09-.07 18 18 0 0 0 12.89-8.73 27.85 27.85 0 0 0 3.68-11.53 41.18 41.18 0 0 0-.2-10.58zm-13.4 13.81a10.79 10.79 0 0 1-3.9 5.24 8.47 8.47 0 0 1-4.33 1.44 11.71 11.71 0 0 1-5.61-.92 9.41 9.41 0 0 1-4.93-5.53 20 20 0 0 1-1.19-6.35 27.19 27.19 0 0 1 .76-8.43 13.71 13.71 0 0 1 1.43-3.4 9.14 9.14 0 0 1 7.47-4.51 10.4 10.4 0 0 1 4.6.49 9.35 9.35 0 0 1 5.2 4.91 19 19 0 0 1 1.67 6.53c.08.92.1 1.78.15 2.48a23 23 0 0 1-1.32 8.05zM86.46 174.8a15.48 15.48 0 0 1-.74-2.49 28.82 28.82 0 0 1-.34-3.93v-28.66a10.93 10.93 0 0 0-3.4-7.86 13.93 13.93 0 0 0-4.27-2.66 29.78 29.78 0 0 0-10.55-2.06c-2.33-.08-4.66 0-7 .12a22 22 0 0 0-6.16 1.19 12.87 12.87 0 0 0-8.19 7.84 22.35 22.35 0 0 0-1.26 5l-.16 1.36h11.89l.19-.55.6-1.84a6.22 6.22 0 0 1 4.78-3.84 18.85 18.85 0 0 1 5.95-.05 9.82 9.82 0 0 1 3 .81 4.54 4.54 0 0 1 2.84 4.5 3.14 3.14 0 0 1-2 3.11 11.28 11.28 0 0 1-2.34.71l-11.71 1.76a26.35 26.35 0 0 0-7.1 2.09 12.89 12.89 0 0 0-5.9 5.24 13.31 13.31 0 0 0-1.68 5.6 13.79 13.79 0 0 0 3.83 11.63 15.71 15.71 0 0 0 6.72 4 20.79 20.79 0 0 0 13.29-.42 12.85 12.85 0 0 0 6.54-4.6 1.86 1.86 0 0 1 .41-.33c.66 1.77.8 3.54 1.43 5.24h11.28c.09 0 .18-.09.35-.15a7.65 7.65 0 0 1-.3-.76zm-12.77-18c0 .79-.08 1.59-.14 2.37a6.79 6.79 0 0 1-2.41 4.73 13.23 13.23 0 0 1-6 3 14.91 14.91 0 0 1-4.21.46 7.18 7.18 0 0 1-3.68-1.09 5.41 5.41 0 0 1-1.42-7.51h0l.1-.12a9.21 9.21 0 0 1 2.87-2.32 25.62 25.62 0 0 1 6.76-2.32l7.31-1.78.79-.13zm193.83-41.93a1.85 1.85 0 0 0-1.23-2.3h-.09a1.3 1.3 0 0 0-.33-.07c-1.28-.13-2.62-.12-4.09-.18h0v7.36h1.34c.06-.92-.05-1.84.07-2.84l1.94.16a1.11 1.11 0 0 1 1 .92 7.43 7.43 0 0 1 .13.93 4.57 4.57 0 0 0 0 .83h1.14c0-1.32.22-2.66-1.36-3.36 1.06-.47 1.38-.77 1.48-1.45zm-1.42.34a1.23 1.23 0 0 1-.66.55c-.7.12-1.42.14-2.24.21v-2.62a5.64 5.64 0 0 1 2.45.2 1.18 1.18 0 0 1 .47 1.6h0zm-70.83-5.39v65.99l-11.78-.02v-65.97h11.78z" fill="#fff"/></svg>