<svg xmlns="http://www.w3.org/2000/svg" viewBox="0 0 300 300"><path d="M8.08 209.18a25 25 0 0 0 5.43-11.24.69.69 0 0 1 .62-.53l15.41-3.3.63-.2-.72-.79c-3.73-3.68-7.37-7.44-10.73-11.48A94.24 94.24 0 0 1 5 160.42a49.92 49.92 0 0 1-4.42-14.88C-1 131.8 3.07 120.16 13.47 110.86c1.41-1.25 2.94-2.27 4.41-3.38a9.89 9.89 0 0 1 1-.6c2.11 7.7 6.75 13.69 12.4 19.11l-.52.62a41.35 41.35 0 0 0-8.81 15A35.69 35.69 0 0 0 20.37 155a47.66 47.66 0 0 0 7.4 21.67c1.41 2.42 3.28 4.67 4.95 7 .13.17.3.31.54.58l.24-2.83a69 69 0 0 1 4.14-18.92 41.3 41.3 0 0 1 23.89-24.1l.51-.2.26-.07a57.12 57.12 0 0 0 11.31 16.18c-1.33.18-2.63.32-3.9.54-13 2.13-21.63 9.26-25.46 21.92a38.46 38.46 0 0 0-1.73 12.15v.54c0 .18 0 0 .09.15s.29-.18.42-.28l29.82-22.18c.48-.35.45-.76.49-1.2a16.32 16.32 0 0 1 5.58-10.42 22.63 22.63 0 0 1 12.32-5.82 17 17 0 0 1 14.14 4.56 24.59 24.59 0 0 1 4.92 6.15.72.72 0 0 1 0 1l-.11.08q-7.68 6.9-15.29 13.84l-.55.49a7.16 7.16 0 0 0 2.83 1 10.34 10.34 0 0 0 8.84-2.47c3.92-3.59 7.76-7.34 11.62-10.95q9.64-9.06 19.34-18.12c1.09-1 2.29-1.89 3.44-2.83a1.08 1.08 0 0 1 1.26-.13 19.56 19.56 0 0 1 10.25 9.55 16.83 16.83 0 0 1 1.5 5.33c.2-.11.35-.18.5-.28l18.2-12a1.76 1.76 0 0 0 .54-.8 19.13 19.13 0 0 0 .55-2.47 2.93 2.93 0 0 1 1.12-1.86 36 36 0 0 1 12.95-7.29 40.93 40.93 0 0 1 6.61-1.64 17.09 17.09 0 0 1 10 1.24 13.6 13.6 0 0 1 7.47 9.67 10.62 10.62 0 0 1 .21 1.07 10.23 10.23 0 0 1 .17 1.06l.61-.27 14.78-8.49a1.67 1.67 0 0 0 .6-.69 20.26 20.26 0 0 1 11.61-12.1 23.22 23.22 0 0 1 8.81-1.86 20.62 20.62 0 0 1 12.25 3.63l.55.37.5-3.56h15.76l-.74 5.05-1.1 7.94a7.36 7.36 0 0 0 .11 2.34 3.89 3.89 0 0 0 3.54 3.08 5.28 5.28 0 0 0 6.56-3.52l.13-.27.49.33 5.46 3.9a1.23 1.23 0 0 0 1.06.23l5.66-1.15 1.32 6.22-4.6 1-32.9 7.18-29.54 6.43-28.43 6.3-23 5a1 1 0 0 0-.86.86l-1.21 6a.69.69 0 0 1-.58.64l-12.73 2.83h-.49l1.08-6.86zm66-35.37q-9.9 7.35-19.8 14.6l.08.16 33.37-6.72c-5.66-.92-10.53-2.83-13.65-8zm159.12-21.88a13.7 13.7 0 0 1-5.92-9.57 9.24 9.24 0 0 0-.7.36q-7.63 4.5-15.23 9a1.14 1.14 0 0 0-.42.65 7.55 7.55 0 0 1-2.47 4.47.35.35 0 0 1-.14.25zM110.57 177v.16l17.51-3.55c-.15-.74-.25-1.42-.45-2.07a1.43 1.43 0 0 1 .62-1.67 3.79 3.79 0 0 1 1-.58 7 7 0 0 0 3.19-2.5 4.25 4.25 0 0 0-.1-5.91c-.36-.43-.74-.84-1.12-1.29zm42.43-8.58a.53.53 0 0 0 .25 0l14.43-3.16a.63.63 0 0 0 .52-.54l1.19-6 .85-4.24-.72.42-14.94 9c-.5.3-.81.57-.59 1.18a1 1 0 0 1 0 .48c-.32 1-.65 1.89-1 2.83zm39.09-15.2c2.83 0 4.24-1.94 4.73-4.39.48-2.67-2.08-5.91-3.87-6.66a4.78 4.78 0 0 0-5.65 1.26 5.1 5.1 0 0 0-1 4.81 6.35 6.35 0 0 0 5.9 5zm52.34-20.95a4.83 4.83 0 0 0-4.43 3.54 6.19 6.19 0 0 0 3.72 7.07c3.69 1.41 6.36-1.19 6.28-4.6a6.33 6.33 0 0 0-3.47-5.33 8.66 8.66 0 0 0-2-.68zM89.5 171.69l8.34-7.48a4.11 4.11 0 0 0-2.5-1.5 7.07 7.07 0 0 0-6.66 3.06 4.37 4.37 0 0 0 .82 5.92zm172.56-29.19l-2.06 3.89 6.1-1.42a12.44 12.44 0 0 1-4-2.47zm-79.35 17l-.76 3.06 4.24-1.06z" fill="#204991"/></svg>