<svg xmlns="http://www.w3.org/2000/svg" viewBox="0 0 300 300" fill="#f60"><path d="M13.39 192.4h.72H50.4c.87 0 1.14-.41 1.42-1.08q2.72-6.69 5.47-13.38l3.68-9 .93 1.1L78 191.45a2.16 2.16 0 0 0 1.94 1q40 0 80-.06a3.18 3.18 0 0 0 1.94-.78q11.81-10.91 23.54-21.89c.29-.27.61-.49 1.19-.95l-4.18 23.62c.46 0 .73.06 1 .06l30.28-.06a2.94 2.94 0 0 0 1.7-.78q12.39-10.89 24.73-21.82c.24-.2.51-.36 1-.73l-3.57 23.3c.51 0 .77.09 1 .09h32.53a1.1 1.1 0 0 0 1.23-.92.62.62 0 0 1 0-.13l1-4.47L284.88 135l1.7-7.82H253.3a3.91 3.91 0 0 0-2.83 1.1q-12.79 11.43-25.62 22.76l-1 .85-.25-.16 5.22-24.64h-32a3 3 0 0 0-2.35 1q-17.17 17.22-34.39 34.42l-1 .93a2.18 2.18 0 0 1 .13-1.31q7.08-20.49 14.21-41c.7-2 .23-1.92 2.66-1.92h50.68c1.23 0 1.85-.26 2.18-1.59l2.48-8.67c.12-.43.19-.88.31-1.45H87.08a1.25 1.25 0 0 0-1.43 1l-2.12 5.85-1.78 4.89h53.92l-22.77 57.3-.76-.85q-8.36-11-16.74-21.89c-.64-.84-.28-1.19.33-1.7l23.06-19.25 6.79-5.71h-.66-24.17a2.71 2.71 0 0 0-1.55.64l-29.49 23.63-1.13.86-.25-.21 10.34-24.7c-.5 0-.8-.09-1.13-.09-11.78 0-23.56-.08-35.34-.16a1.49 1.49 0 0 0-1.61 1.13Q28.42 157 16.18 185.79l-2.79 6.61z"/><path d="M13.39 192.4l2.79-6.61Q28.4 157 40.61 128.22a1.5 1.5 0 0 1 1.61-1.13l35.34.16c.31 0 .61 0 1.13.09l-10.36 24.72.25.21 1.13-.86 29.52-23.63a2.71 2.71 0 0 1 1.55-.64h24.16a4.36 4.36 0 0 1 .67 0l-6.79 5.71-23.06 19.31c-.61.5-1 .84-.33 1.69l16.74 21.89c.18.24.4.45.76.85l22.74-57.31h-53.9l1.78-4.89 2.12-5.85a1.25 1.25 0 0 1 1.43-1h17 127.64l-.31 1.45-2.47 8.69c-.33 1.33-1 1.59-2.18 1.59q-25.35-.06-50.68 0c-2.43 0-2-.13-2.66 1.92q-7.12 20.48-14.2 41a2.26 2.26 0 0 0-.13 1.31l1-.93q17.19-17.21 34.37-34.44a3 3 0 0 1 2.35-1h30.52 1.45l-5.22 24.64.25.16 1-.85q12.83-11.34 25.65-22.72a3.9 3.9 0 0 1 2.83-1.1h31.58 1.7l-1.7 7.82q-5.73 26-11.49 51.91l-1 4.48a1.08 1.08 0 0 1-1.11 1h-.12-32.53c-.27 0-.56-.05-1-.09l3.56-23.3-1 .73q-12.36 10.92-24.73 21.82a2.94 2.94 0 0 1-1.7.78l-30.28.06c-.28 0-.54 0-1-.06l4.18-23.62-1.18 1-23.57 21.89a3.12 3.12 0 0 1-1.94.78q-40 .06-80 .06a2.16 2.16 0 0 1-1.94-1q-8-10.69-16.09-21.34c-.25-.33-.56-.64-.93-1.1l-3.68 9q-2.74 6.69-5.47 13.38c-.27.67-.57 1.08-1.42 1.08q-18.12 0-36.29 0a6.44 6.44 0 0 0-.77-.14z"/></svg>