<svg xmlns="http://www.w3.org/2000/svg" viewBox="0 0 300 300" fill="#008da6"><path d="M149.92 174.6a49.46 49.46 0 1 1 .16 0zm-38.58-49.5A38.55 38.55 0 1 0 150 86.64h-.1a38.56 38.56 0 0 0-38.56 38.46zm23.16 2.23a59.57 59.57 0 0 1 16.79 2.94 45.55 45.55 0 0 0 24.16-.51 5.21 5.21 0 0 1 .79-.13l-1.44 5.39c-1.64 6-2.46 6.55-8.61 7.44a47.49 47.49 0 0 1-21.53-1.87 43.2 43.2 0 0 0-24.93 0l-1.08.26c.13-.67.21-1.16.34-1.64l7.1-26.22a5.78 5.78 0 0 1 4.91-4.6 43.68 43.68 0 0 1 23.64 1.06 45.45 45.45 0 0 0 26 .18 7.47 7.47 0 0 0 .92-.16 5.06 5.06 0 0 1 0 1.1c-.59 2.18-1.29 4.34-1.77 6.55a5.37 5.37 0 0 1-4.61 4.44 48.44 48.44 0 0 1-23.68-.73 126.09 126.09 0 0 0-13-2.4 1.54 1.54 0 0 0-1.94 1 1.61 1.61 0 0 0-.07.37c-.49 2.44-1.26 4.84-1.99 7.53zm-7.28 76.58l5.21-7.46 5.72-8.31a4.33 4.33 0 0 1 4.15-2.14h6.88v32.24c-2.83 0-5.68 0-8.54-.07-.28 0-.73-.95-.74-1.47v-16.12l-.39-.12-12.31 16.8-12.34-16.79-.31.12v17.55h-9.42v-32.07l8.27.09a4.38 4.38 0 0 1 2.54 1.86l10.11 14.32 1.17 1.57zm132.1-17.84h10.25a9.17 9.17 0 0 1 9.51 8.82v.8 13.42a9.09 9.09 0 0 1-9 9.2H270h-21.5a9.16 9.16 0 0 1-9-9.11v-14a9.18 9.18 0 0 1 8.95-9.1c3.66-.08 7.32 0 10.92 0zm-.08 24.58h7.94c2 0 2.38-.4 2.38-2.3v-12.56c0-1.5-.57-2.23-2.16-2.22h-16.22c-1.69 0-2.24.56-2.25 2.29v12.4c0 1.88.48 2.37 2.34 2.38h8zm-83.99-24.58h10.24a9.16 9.16 0 0 1 9.54 8.76v.83 13c0 5.76-3.94 9.59-9.76 9.59h-20.11c-5.5 0-9.41-3.43-9.69-8.94-.24-4.77-.23-9.57 0-14.35.24-5.37 4.15-8.88 9.54-8.93l10.24.04zm0 24.58h8.27c1.39 0 2.06-.63 2.07-2v-13.03c0-1.43-.68-2.07-2.16-2.07h-16.2c-1.55 0-2.26.64-2.26 2.15v12.72c0 1.75.54 2.21 2.33 2.22h7.95zM58 210.61l-2.21 5.68a3 3 0 0 1-3 2H29.62a9 9 0 0 1-8.75-9.17V195.2c0-4.73 3.66-9 8.34-9 9.75-.2 19.51-.06 29.56-.06-.87 2.12-1.56 4.13-2.51 6-.66 1.31-2.08 1.46-3.45 1.46H33c-2.29 0-2.58.29-2.58 2.55v12.19c0 1.94.35 2.3 2.34 2.3H58zm14.38-8.49h22a46.87 46.87 0 0 1-2.62 6.1 3.84 3.84 0 0 1-2.83 1.22c-4.88.12-9.76 0-14.55 0H72.2v8.7h-9.54v-22.2c0-6 3.89-9.91 9.94-9.92h26.14a11.57 11.57 0 0 1 1.66.09c-.79 2-1.44 3.94-2.3 5.75-.67 1.41-2.06 1.67-3.53 1.67H75.06c-2.66 0-2.89.24-2.89 3v5.12a4.4 4.4 0 0 0 .21.47zm140.33-8.55h-14l2.44-5.95c.64-1.34 2-1.61 3.38-1.61h32.92l-2.35 5.82a3.22 3.22 0 0 1-3.33 1.68h-9.47v24.73c-3.07 0-5.91 0-8.75-.06-.28 0-.77-.94-.77-1.44v-12.89z"/></svg>