<svg xmlns="http://www.w3.org/2000/svg" viewBox="0 0 300 300" fill="#d6291c"><path d="M117.79 129l.93 1.85-1.4 1a13 13 0 0 1-6.48 1.6 16.36 16.36 0 0 1-9.72-2.92 14.61 14.61 0 0 1-6.12-10.7 19.9 19.9 0 0 1 1.24-10.24 17.92 17.92 0 0 1 9.39-9.76c7.44-3.37 15-3.55 22.44 0a19.89 19.89 0 0 1 11.65 16c1.49 11.21-3.07 19.76-12.38 25.87a33 33 0 0 1-14 4.88 41.41 41.41 0 0 1-16-.85A42.55 42.55 0 0 1 80 136.38a68.16 68.16 0 0 1-11.21-12.65c-.9-1.27-1.24-1.38-3-.87.25 5.94-.66 12 1.33 18H50.6a2.6 2.6 0 0 1 .06-.56 18.07 18.07 0 0 0 1.11-6.37v-3.32-31.48a41.18 41.18 0 0 0-.7-8.3c-.15-.69-.35-1.41-.56-2.24.49 0 .89-.1 1.28-.1q10.8 0 21.61 0a24.07 24.07 0 0 1 9.12 1.64c4.86 2 8 5.43 8.94 10.69a14.62 14.62 0 0 1-8 16c-.75.42-1.53.76-2.34 1.15a4.66 4.66 0 0 0 .26.61c3.56 5.81 7.79 11 13.45 15a25.92 25.92 0 0 0 13.94 4.89c4.82.19 9.27-.88 12.93-4.25a16.37 16.37 0 0 0 4.85-8.78 25.25 25.25 0 0 0-.64-13.57 13.64 13.64 0 0 0-2.4-4.39 8.67 8.67 0 0 0-14 .73 13 13 0 0 0-2 5.24 19.27 19.27 0 0 0 .67 9.23 12.21 12.21 0 0 0 1.32 2.75 7.45 7.45 0 0 0 6.93 3.64h1zM66.06 96.55c-.25 1.84-.16 18.42.12 19.32.67 0 1.36 0 2.06.1a9 9 0 0 0 9.22-5.69 13.84 13.84 0 0 0 .82-7.94c-.59-3.41-2.52-5.34-5.92-5.75a57.4 57.4 0 0 0-6.3 0zm149.23 44.29h-16.61l.23-1.13a8.37 8.37 0 0 0-.37-5.41l-1.07-2.88a1 1 0 0 0-1.08-.77q-5.64 0-11.29 0a.82.82 0 0 0-.93.6l-1.49 5.06a5.44 5.44 0 0 0 .42 3.82c.08.18.13.38.23.67h-11.26a1.19 1.19 0 0 1 .11-.41 28.34 28.34 0 0 0 3.19-7q4.31-12.45 8.6-24.92c.61-1.77 1-3.61 1.51-5.43a5.92 5.92 0 0 0-.22-3.85 5.33 5.33 0 0 1-.17-.66H199l1.89 5 11.43 31.07a23.88 23.88 0 0 0 2.81 5.71 3.89 3.89 0 0 1 .16.53zm-28.65-17.06h8.15l-4-11.58h-.28l-3.87 11.58zM137 98.51h14.26l8.69 17.68.64-1.07q2.28-4.56 4.53-9.12a17.67 17.67 0 0 0 .89-2.15 6.67 6.67 0 0 0-.31-5.22 84.83 84.83 0 0 1 11.06-.09 8.18 8.18 0 0 1-.32.87q-5.83 11.55-11.7 23.09a3.54 3.54 0 0 0-.42 1.75l.25 10.31a15.29 15.29 0 0 0 1.19 5.85 1.4 1.4 0 0 1 .05.41H149.6a1.12 1.12 0 0 1 0-.41 13.72 13.72 0 0 0 1.17-6.22v-10.18a3.85 3.85 0 0 0-.46-1.88l-10.61-19.92a25.42 25.42 0 0 0-2.15-3c-.13-.21-.31-.37-.55-.7zm96.59 33.78a32.57 32.57 0 0 0 7.94.64 24.49 24.49 0 0 0 7.92-1.26l-1 9.15h-29.64a5.27 5.27 0 0 1 .19-.82 14.88 14.88 0 0 0 .94-4.94l.12-9.69v-17.55a59.51 59.51 0 0 0-.41-6.11 22.44 22.44 0 0 0-.8-3.13h15.79a3.78 3.78 0 0 1-.12.82 19 19 0 0 0-.91 6v25.65a5.11 5.11 0 0 0-.02 1.24zm9.63 34.35v26.29a38.19 38.19 0 0 1-13.57-1.79v-20.08c0-3.75.27-7.53-1.26-11.17a7.35 7.35 0 0 1 .82-.1l20.5.08a25.93 25.93 0 0 1 13.81 4.18 20.85 20.85 0 0 1 10 18.09 24.68 24.68 0 0 1-5.68 16.71 25.42 25.42 0 0 1-14.54 8.56 41.14 41.14 0 0 1-21.2-1.09c-3.29-1-6.58-2-9.92-2.78a48.92 48.92 0 0 0-11.56-1.3h-7.81a2.64 2.64 0 0 1 .05-.63 17.87 17.87 0 0 0 1.13-6.74q0-13.83 0-27.64a18.06 18.06 0 0 0-1.24-7.19c.94-.31 14.51-.38 16-.11a15.59 15.59 0 0 0-.55 2 56.42 56.42 0 0 0-.67 6.45v25.05 1.37a7.91 7.91 0 0 0 .85.13 54.66 54.66 0 0 1 12.13 1.64 45.21 45.21 0 0 0 12.28 1.36 22.24 22.24 0 0 0 8.56-2 13.8 13.8 0 0 0 7.59-8.56 19.49 19.49 0 0 0-.58-13.92 10.56 10.56 0 0 0-10.36-6.81zM58.78 174v9.77a94.64 94.64 0 0 0-16.17-.79v16.61a17 17 0 0 0 4.11.82c7 1.13 13.78.19 20.53-1.56a71.39 71.39 0 0 1 10.92-2.21c1.87-.19 3.76-.25 5.64-.32a1.44 1.44 0 0 1 1 .32l4.89 5.52a6.42 6.42 0 0 1-.88.12 43.18 43.18 0 0 0-17 3.36c-3.5 1.38-7 2.7-10.6 3.86a46.8 46.8 0 0 1-11.7 2 73.36 73.36 0 0 1-21.89-2.26c-.41-.1-.76-.23-1.18-.36a31.8 31.8 0 0 0 .92-3.48 29.41 29.41 0 0 0 .31-4.4q0-20.68 0-41.37a28.55 28.55 0 0 0-1.23-9.39.86.86 0 0 1 .1-.16.17.17 0 0 1 .1-.06 2.74 2.74 0 0 1 .5-.07h33a2.19 2.19 0 0 1 .5.14l1 9.12c-.41-.08-.68-.1-.94-.18a19.52 19.52 0 0 0-5.53-.86l-11.79-.1c-.32 0-.64.06-1 .09v16.59c5.5-.12 10.92.09 16.39-.75zm17.73 5.82v12.23l-10.22 2V168.5a42.12 42.12 0 0 0-.28-5l-.87-3.76c.35 0 .73-.07 1.11-.07h9.33a2.32 2.32 0 0 1 2.06 1q8.64 10.56 17.3 21.06l1 1.16.27-.1v-14a22.66 22.66 0 0 0-1.21-8.48V160h12.49a4.64 4.64 0 0 1-.11.51 19.16 19.16 0 0 0-1 6.63V195a16.43 16.43 0 0 0 1.14 6.61 1.71 1.71 0 0 1 0 .45h-3.08-5.52a3.17 3.17 0 0 1-2.27-.73 32.7 32.7 0 0 1-3.1-2.78l-14.07-15.74-2.73-3.12zm106.81-12.7v9.73a21.53 21.53 0 0 0 5 0l5-.37a42.31 42.31 0 0 1 .06 8.47 40.36 40.36 0 0 0-10.23-.77v10.07a30.06 30.06 0 0 0 7.56.51 18.82 18.82 0 0 0 7.44-1.27 48.08 48.08 0 0 1-.9 8.7h-28.73a2.93 2.93 0 0 1 .11-.67 17.27 17.27 0 0 0 1-6v-28.15a18 18 0 0 0-1.23-7.16l.09-.16s0-.07.09-.07a7.9 7.9 0 0 1 .85-.07h26.88l1.06 8.47a21.12 21.12 0 0 0-7-1.26zM113.38 160h28.1l1 8.42a21.31 21.31 0 0 0-7-1.23h-7a70.83 70.83 0 0 0-.08 11.14 53.06 53.06 0 0 0 10.23-.52v8.63a37.7 37.7 0 0 0-10.28-.82l-.11 1v8.84a14.32 14.32 0 0 0 1.41 6.76h-16.2a32.5 32.5 0 0 0 .85-3.33 30.71 30.71 0 0 0 .32-4.28q0-13.5 0-27a18.21 18.21 0 0 0-1.24-7.61zm49.14.06c-1.31 3.08-1.31 6.24-1.31 9.37v23.81c0 3 0 6 1.37 9.1-5.47.1-10.75 0-16.09 0a2.54 2.54 0 0 1 .07-.61 20.5 20.5 0 0 0 1.12-7.84q0-12.75 0-25.52c0-2.81-.06-5.64-1.29-8.28a159.61 159.61 0 0 1 16.13-.03z"/></svg>